<svg xmlns="http://www.w3.org/2000/svg" xmlns:xlink="http://www.w3.org/1999/xlink" xml:space="preserve" style="enable-background:new 0 0 325.7 232.2" viewBox="0 0 325.7 232.2">
  <style>
    .st0{fill:#6fb747}.st1{fill:#4a626f}.st2{fill:#0d7243}.st4{fill:none;stroke:#ec2227;stroke-width:4;stroke-miterlimit:10}.st7{fill:#fff}.st8{font-family:&quot;DINOT-Bold&quot;}.st9{font-size:9px}.st10{font-family:&quot;DINOT-Medium&quot;}.st11{font-size:10px}
  </style>
  <g id="Layer_1">
    <path d="M306.3 82.4H15.9c-.7 0-1.5 0-2.1.6 0 2.9-.1 5.8-.1 8.6 0 14.3 0 28.6.1 43 1.2 1 2.7.6 4.1.6h288.4c.3-9.3-.6-18.5 0-27.8-.6-8.3-.2-16.7 0-25z" class="st0"/>
    <path d="M306.3 82.4c-.2 8.4-.6 16.7 0 25.1.6-8.4-1.5-16.7 0-25.1-1.3 0 1.3 0 0 0z" class="st0"/>
    <path d="M306.3 135.3c1 0-1 0 0 0-.2-9.3.7-18.5 0-27.8-.6 9.2.3 18.5 0 27.8z" class="st0"/>
    <path d="M14.3 219.2c-.7 0-1.3.1-2 .1" class="st1"/>
    <path d="M13.1 211.2c.7 0 1.3 0 2 .1" class="st1"/>
    <path d="M16.4 72.6H15c-1-.1-1.3.2-1.3 1.2.1 3.1.1 6.2.1 9.3h292.5c.1-3.5-.4-7 0-10.5H16.4z" class="st2"/>
    <path d="M306.3 134.6H13.8c0 2.8.1 5.5-.1 8.3-.1 1.9.5 2.3 2.3 2.3h290.3c.1-3.6.1-7.1 0-10.6z" class="st2"/>
    <path d="M15.1 211.2c2.3 0 280.2-.1 282.5-.1.9 0 1.5 0 1.5-1.2 0-1.7.6-2 2.3-1.2l10.2 5.1c1.5.8 1.7 2 .2 2.8-3.5 2.1-7 4.1-10.5 6.1-1.2.7-2.4-.1-2.2-1.5.3-2-.7-2.1-2.3-2.1-2.3.1-280.2 0-282.5 0" style="fill:#49626d"/>
  </g>
  <g id="Layer_3">
    <path d="M13.7 19.3c160.1 0 107.3 68.6 292.6 68.6" class="st4"/>
    <path d="M13.7 194.4c160.1 0 107.3-65.4 292.6-65.4" class="st4"/>
  </g>
  <g id="text">
    <text class="st10 st11" transform="translate(68.0585 60.2808)">Degrowth</text>
    <text class="st10 st11" transform="translate(74.5262 162.0547)">Growth</text>
    <text class="st10 st11" style="fill:#ec2227" transform="translate(141.2725 34.8162)">Rich Countries GDP</text>
    <text class="st10 st11" transform="translate(244.4746 60.2806)">Post-Growth</text>
    <text class="st10 st11" transform="translate(244.4746 163.363)">Post-Growth</text>
    <text class="st10 st11" style="fill:#eb232a" transform="translate(141.2725 192.9426)">Poor Countries GDP</text>
    <text class="st7 st8 st9" transform="translate(53.0006 80.8188)">ECOLOGICAL CEILING</text>
    <text class="st7 st8 st9" transform="translate(52.5728 142.8684)">SOCIAL FOUNDATION</text>
    <text class="st7 st8 st9" transform="translate(48.4645 110.7396)">Safe space for humanity</text>
    <text class="st7 st8 st9" transform="translate(217.0165 110.7396)">Reduce Inequality</text>
  </g>
</svg>
