<svg xmlns="http://www.w3.org/2000/svg" version="1.0" viewBox="0 0 692 271"><path fill="#0F0" stroke="#0F0" stroke-width="1.8" d="M119.5 93.7c-1.6.1-8.6.8-15.5 1.4-6.9.6-12.8 1.3-13.2 1.6-1.1.6 1.4 5.1 8.1 15.1 3.1 4.6 6.1 9.1 6.6 10 .6.9 1.5 2.2 2 2.8.6.7 3.9 5 7.5 9.5s9.4 11.3 13 15.1l6.4 6.9 3.3-6.9c3.2-6.9 15.5-21.2 18.1-21.2.6 0 1.2-.5 1.2-1 0-.6.7-1 1.5-1s1.5-.4 1.5-.8c0-1.4 13.1-6.2 19.6-7.2 5.2-.8 10.5-.5 18.9 1.3 8.1 1.8 25.2 16.4 33 28.1l3.9 5.9 1.6-4.9c1-2.7 3.3-8.4 5.3-12.8 4.3-9.3 3.5-16.2-2.7-21.8-3.1-2.8-18.6-11.3-18.6-10.2 0 .4-.7.1-1.5-.6s-1.5-.9-1.5-.5-.6.2-1.3-.4c-.8-.6-2.2-1.2-3.3-1.4-1-.2-2.6-.7-3.4-1-2.5-1-9.8-2.8-10.7-2.6-.4.1-1.9-.1-3.3-.4-2.7-.8-5.6-1.1-20-2.6-8.8-.8-49.8-1.2-56.5-.4zm393.4 24.8c-.4.3-1.9.8-3.3 1.1-4.1.7-10.6 3.5-10.6 4.5 0 .5-.7.9-1.5.9s-1.5.4-1.5 1c0 .5-.5 1-1.1 1-1.9 0-16.4 15.3-18.8 19.8-.6 1.1-1.7 2.7-2.5 3.4-9 9.1-5.4 23.2 9.9 38.1 5.3 5.2 12.3 10.4 14.6 10.9.8.2 1.6.6 1.9 1 .3.4 1.5.9 2.5 1.1 1.1.1 2.5.6 3.1 1 1.9 1.1 15.7.2 18.4-1.3 1.4-.8 2.8-1.3 3.2-1.2 1.3.3 10.1-9.4 11.9-13.3 6.8-14.6-3.6-32.8-18.6-32.8-16 0-24 19.7-11.9 29.2 6.5 5.1 18.4-.1 18.4-8 0-3-2.4-8.8-3.8-9-.4 0-2-.2-3.7-.4-4.4-.6-7.5 1.8-7.5 5.9 0 4.1 2 6 6 5.4 2.4-.4 2.7-.2 1.9.9-2.5 2.9-8.2.9-9.6-3.4-1.4-4-.2-7.5 3.3-9.8 10-6.7 21.4 5.6 15.3 16.4-1.2 2.3-2.6 4.1-3 4.1-.4 0-1.5.7-2.4 1.6-4.3 4.3-16 2-21.4-4.2-12.1-13.7-.2-34.3 19.4-33.5 23.7 1 34.1 29.9 17.1 47.7-2.8 3-5.7 5.4-6.3 5.4-.7 0-1.3.5-1.3 1.1 0 .5-.4.7-1 .4-.5-.3-1-.2-1 .4 0 .5-1.8 1.2-4 1.6-2.2.4-3.8 1-3.6 1.4.2.3-1.4.5-3.6.3-3.8-.4-3.9-.3-2.7 1.6.7 1.1 1.7 1.8 2.1 1.6.4-.3.8-.1.8.4 0 3.5 23 4.4 25.1 1 .3-.5 1-.9 1.5-.8 1.5.2 8.4-3.2 8.4-4.2 0-.4.6-.8 1.2-.8 2.7 0 12.7-12.2 15.4-18.9 5.3-12.9 3.5-29.3-4.8-42.5-4.2-6.8-17.9-19.9-19.6-18.8-.3.2-.8-.1-1.2-.7-.3-.6-1.7-1.4-3-1.6-1.3-.2-2.6-.9-2.9-1.3-.6-.9-2.3-1.6-7.3-2.9-3.4-.9-17.2-1.5-17.9-.8zm-249.6 53.3c-4.7 7.9-14.3 17.8-23.8 24.6-1.1.8-1.7 1.7-1.3 2.1.7.7 17.5-2.2 19.3-3.3.5-.4 1.6-.7 2.3-.8.8-.2 2.9-1 4.9-1.9 2.7-1.3 4-1.4 6.1-.6 3.5 1.4 43.7 5 56.7 5 11.9.1 13.6-.6 11.1-4.4-1.6-2.4-2.2-2.6-7.9-2.5-3.4.1-13.6-.3-22.7-1-22-1.5-24.7-1.7-30.5-2.9-2.7-.5-5.2-.8-5.6-.5-2.3 1.4-4.9-4-4.9-10.1 0-7.7-.8-8.5-3.7-3.7z"/><path fill="red" stroke="red" stroke-width="1.8" d="M513.5 89.1c-19.4 2-33.3 6.3-45 14-8.6 5.6-8.4 5.4-11 15l-2.1 7.6 4.3 8.9c2.3 4.9 4.2 9.4 4.3 10 0 .6.7 2.8 1.6 4.9l1.5 3.8 4.5-6.6c2.4-3.6 7.1-9.5 10.4-13 3.3-3.5 5.7-6.6 5.5-6.9-.3-.3.1-.5.8-.5.7 0 3.7-1.6 6.8-3.6 14.1-9.4 29.4-10.4 46.4-2.9 3.3 1.5 6.7 3.2 7.5 3.9.8.6 3.5 2.7 6 4.5 2.5 1.9 6.7 6.1 9.4 9.5l4.9 6.2 5.1-6.1c9.1-10.7 24.9-34 27.1-39.9 1.9-5.1-62-11.5-88-8.8zm-342 34.2c-40.1 15.2-46.8 66.2-10.9 83.2 8.8 4.2 22.1 4.7 25.9.9.8-.9 1.5-1.3 1.5-.9 0 .3.9.1 2-.5 3-1.6 2.4-3-1.3-3-9.6 0-23-9.6-26.1-18.7-8.6-25.2 20.9-46.7 38.2-27.9 7.4 8 7.8 16.4 1.2 24-10.5 11.9-31.2 2.2-24.9-11.7 3.6-7.9 17.9-7.2 17.9.9 0 3-1.6 6.4-3.1 6.4-.5 0-.2-1.1.7-2.4 3.5-5.4-3.6-11.8-9.1-8.2-8.1 5.3-3.5 17.6 6.7 17.6 5.1 0 10.3-4.8 11.3-10.3 3.7-19.6-23.4-26.4-32.8-8.3-10 19.2 10 40.7 31.8 34.2 13.9-4.2 29.5-20.6 32.6-34.1 1.1-5 1.1-5.2-3.2-12.5-14.8-24.9-38.2-36.4-58.4-28.7zm256.6 48.4c-1.3 6.7-2.7 11.3-3.7 12-3.1 2.3-23.9 4.6-51.9 5.9-11.3.5-15.4 1-16.7 2.2-4.1 3.5-.5 6.6 6.9 5.8 2.7-.3 9.8-.8 15.8-1.1 6.1-.3 18.2-1.3 27-2.2 20.5-2.2 20.3-2.2 31 1 8.3 2.4 24.4 5.1 25.4 4.2.2-.2-3.3-3.9-7.9-8.1-9.1-8.6-15.1-16-20-24.7-1.7-3.1-3.3-5.7-3.5-5.7-.1 0-1.2 4.8-2.4 10.7z"/><path stroke="#000" stroke-width="1.8" d="M452.8 97.9c-2.1 1.7-2.1 2.1-.9 5.9 2.2 6.6-2.6 19.9-8 21.9-2.8 1.1-3 1-5.4-3.1-3.2-5.4-5.3-15.2-3.6-16.9 1.8-1.8 1.3-5.5-.9-6.7-2.8-1.5-6 .4-6 3.5 0 1.4.8 2.9 2 3.5 1.3.7 2 2.1 2 3.8 0 3.5 2.7 13.8 4.6 17.6 1.2 2.6 1.2 3.1 0 4.5-6.3 7-7.1 17.5-2.1 27.9 10.8 22.7 29.7 39.9 53.4 48.8 14.6 5.5 30.1 8.8 30.1 6.5 0-.6-.6-1.1-1.4-1.1-.8 0-4-1.9-7.2-4.3-3.3-2.3-7.9-5.1-10.4-6.2-16.7-7.4-33-26.8-34.6-41.2-.7-6.9-6.4-23.7-10.5-31.1-3-5.3-3-5.3-.9-11.8 1.1-3.7 2-7.9 2-9.4 0-1.6.8-3.5 1.8-4.2 2.5-1.8 3.4-4.6 2.2-6.8-1.4-2.7-3.7-3.1-6.2-1.1zm-209.1 3.8c-1.4 1.4-.6 6.4 1.3 8.3 1.1 1.1 2 3.2 2.1 4.7 0 1.6.8 5.3 1.7 8.3 1.7 5.4 1.7 5.4-1.6 11.7-4 7.5-8.6 20.9-9.6 27.8-1.5 9.6-12.8 26-21.7 31.2-1.5.9-2.5 2.1-2.2 2.7.3.6.3.8-.1.5-1.3-1.2-23.5 11.5-23.6 13.5-.1 2.9 23.1-3.4 35.2-9.5 15.2-7.7 28.4-20.1 37.1-34.8 7.7-12.9 8.5-20.4 3.3-29.6l-2.4-4.4 2.4-7.6c1.3-4.2 2.4-8.9 2.4-10.4 0-1.8.8-3.4 2.2-4.3 3.3-2.2 1.8-6.8-2.2-6.8-3.4 0-5.2 3.9-3 6.5 2.1 2.5-2.7 19.5-5.5 19.5-4.9 0-14.3-18.1-10.6-20.5 1.5-.8 1.4-4.8-.1-6.3-1.3-1.3-4.1-1.6-5.1-.5zm-114.8 99.6c-24.8 8.5-24 9.7 6.1 9.7 13.2 0 24-.4 24-.8 0-.5-1.7-1.8-3.8-3-2.1-1.2-5.9-3.9-8.4-6.2-2.5-2.2-4.8-4-5-4-.1 0-6 1.9-12.9 4.3zm432 4c-2.5 2.3-6.9 5.3-9.7 6.7-2.8 1.4-5.1 2.8-5.2 3.3 0 1.7 53.5.3 53.8-1.4.4-1.9-7.7-5.7-21.1-10-11.8-3.7-12.3-3.6-17.8 1.4z"/></svg>