<svg xmlns="http://www.w3.org/2000/svg" version="1.0" viewBox="0 0 366 392"><path fill="#693" stroke="#693" stroke-width="7.4" d="M140 63.1c-20.5 2.2-42.8 18-58.2 41.5-8.7 13.3-12.8 21.6-17.6 36-6.3 18.7-7.7 26.6-7.7 44.4 0 17.3.6 20.3 7.7 39.2 7.6 20.3 20.9 39.8 41.2 60.1 4.3 4.2 8.1 7.7 8.6 7.7s2.2 1.2 3.7 2.7c10.1 9.6 23.8 18.6 42.5 28 14.8 7.4 35.3 13.4 52.3 15.4 18.1 2.1 35.3-.2 49-6.6 13-6.1 26.3-20.7 35.1-38.5 4.2-8.5 9.8-25.1 12.1-36 2.7-12.8 2.5-40.7-.4-51.2-12.1-43.2-54.7-84.3-108.8-105.1-29-11.1-62.9-11.2-84.9-.2-3.8 1.9-7.1 3.3-7.3 3.1-.2-.2 2.6-3.1 6.3-6.5 12.4-11.3 27.8-16.7 38.6-13.4 2.9.9 10 1.8 15.7 2 10.4.4 10.4.4 9.8-3.3-1-6.2-4.8-10.7-12.5-14.7-8-4.2-15.5-5.6-25.2-4.6zm27.5 50.3c26.1 4.6 44.4 12.3 68.5 28.7 11.9 8.1 32.2 28.3 39.2 38.9 11.7 17.9 15.7 28.9 16.5 45.6 1 20.8-3.8 41.4-13.9 60.2-6.8 12.6-13 19.6-22.3 25.1-7.1 4.3-13.4 6-25.5 6.7-9 .6-28.1-1.4-29.8-3.1-1.3-1.2 2.1-2.2 9.6-2.8 8.6-.6 22.2-3.7 29.5-6.8 17.8-7.4 31.4-23.5 35.2-41.4 2.8-13.6 1.1-32-4.6-48.3-3.5-10-13.9-30.3-15.1-29.6-.4.3-.5-.1-.3-.8.6-1.6-10.2-15-17.3-21.7-5.3-4.9-21-12.8-31.2-15.7-9.1-2.6-35.6-2.7-45-.2-10.3 2.8-26.3 11.1-30.3 15.8-9.3 10.9-13.1 22.9-13 41.5 0 15.5 2.8 27.7 9.4 41.5 5.3 11.2 10.5 17.7 19.2 24.4 14.7 11.1 28.2 15.6 47.1 15.6 14.3 0 19.3-1.3 25.6-6.8 5.7-4.8 9.6-11.1 12.2-19.7 2.9-9.3 3.1-27.7.4-38-2.2-8.2-6.6-19.9-7.8-20.3-.4-.2-.8-1-.8-1.7 0-1.5-6.1-10.7-9.9-14.9-1.4-1.6-5.4-4.1-8.8-5.7-12.9-6-30.3-5.2-41.1 1.8-11.1 7.2-13.4 27.1-5 43.8 3 5.8 11.4 18.1 15.3 22.4 1.8 2 4.2 4.7 5.3 6.1 2.1 2.5 2.1 2.5 5.6-.9 1.9-1.9 3.3-3.8 3-4.3-.3-.5-.1-.7.4-.6.5.2 2.4-1 4.1-2.5 3.2-2.8 3.2-2.8-3.1-9.7-10.9-12-15.7-21.4-15.8-31.2 0-5.4.2-5.8 3-7.3 4-2.1 15.2-2 19.7.2 4.9 2.3 11.7 11.3 14.2 18.9 4.6 14.1 5.1 34.5.9 43.2-2.5 5.4-4 6.1-13.5 6.8-9.8.8-22.4-1.5-31.3-5.7-14.4-6.7-26.4-25.6-28.6-45-.4-3.3-1-6.1-1.4-6.4-1-.6.8-15.2 2.6-20.7 3.2-9.9 10.6-16.3 23.9-20.4 4.7-1.5 9.1-1.8 21-1.8 13.8 0 15.7.2 23 2.8 9.8 3.4 13.6 5.6 19.9 11.5 11.3 10.8 22.2 29.3 26.1 44.6 4.1 16.1 4.5 31.9.9 42-3.4 9.5-14.7 18.1-30.4 23-3.5 1.1-10.5 1.9-19.5 2.2-16.2.6-27.3-.9-42.5-5.8-16.6-5.4-24.6-10-36.7-21.3-6.9-6.5-8.9-9.2-13.4-17.9-6.9-13.3-10.3-21.9-13.4-34.2-6.7-26.4-5.3-54 3.7-72.2 4.7-9.6 13.5-18.6 22.1-22.7 4-1.8 9.7-3.9 12.7-4.5 3-.6 6.4-1.3 7.5-1.5 4.7-.9 16.6-.5 24 .8z"/></svg>