<svg xmlns="http://www.w3.org/2000/svg" version="1.0" viewBox="0 0 692 535"><g fill="red" stroke="red" stroke-width=".1"><path d="m365.5 78.9-2 .9-1.9 2.1-2 2.1 1 1 1 1 3.5-1.7 3.4-1.7h3.6l3.6-.1 2.6 1.8 2.6 1.7 4.1 6 4 6 2.1 1.1 2.1 1.1 1.1-1.1 1-1-.9-3.2-.9-3.3-5-2.9-5-2.9-3-2.8-3-2.9-2.8-1-2.8-1.1-2.2.1h-2.2l-2 .8z"/><path d="m365.3 86.9-3.1 1.9-3.2 6.6-3.2 6.5.7 1 .6 1.1h2.6l2.4-2.6 2.4-2.6 2.7-1.4 2.7-1.4h8.8l3.8 2.6 3.8 2.5 1.8 2.2 1.8 2.2 2.1 4.2 2 4.3 3.9 2.4 3.9 2.5 1.6 2.3 1.6 2.2v5.4l1.4 1.1 1.4 1.2 2.2-4.6 2.2-4.5-.7-3.2-.7-3.3-1.4-2.7-1.4-2.6-2.7-2-2.8-1.9-5-1.8-5-1.9-2.7-1.8-2.8-1.9-3.2-4.7-3.2-4.7-2.5-2.3-2.4-2.2h-7.2l-3.2 1.9zm-17 1.2-3.2 2.1-4.9 6.1-4.9 6.2-5.7 1.8-5.7 1.8-2 3.2-2 3.2.4 4.7.4 4.7 1.2 1.5 1.2 1.5 4.5-3.5 4.6-3.4h1.7l1.4-3.3 1.5-3.2 1.2-3.5 1.3-3.5 2-2.2 2-2.2 2.6-.6 2.7-.6 2.4.9 2.4.9 3.3-6.6 3.2-6.6-1.2-.7-1.2-.8h-6l-3.2 2.1zm-57 4-3.3 2.1v.6l.1.7 3.3 2.1 3.3 2.1 2.4-1.8 2.4-1.9h5.5v-1.7l-1.9-1.7-1.9-1.7-3.3-.5-3.4-.5-3.2 2.2z"/><path d="m331.3 93-4.1.9-3.2 1.6-3.1 1.6-1.9 3.2-2 3.2v5.2l.5.5.6.5 3.2-3.2 3.3-3.3 4.3-1.2 4.3-1.1 2.5-2.7 2.5-2.7.9-1.8 1-1.7-2.3.1-2.3.1-4.2.8zm-53.1 4.7-2.2.4-3.5 3.6-3.4 3.5-2.1 6.3-2.1 6.4-3.7 3.3-3.7 3.3-3.8 2.5-3.7 2.5-1.1 3.2-1.1 3.3 1.2 3.5 1.1 3.4 3.2 2.6 3.2 2.5 1 .9 1 .8 2.5-1.5 2.5-1.6.4-.2.3-.3-2.2-3.2-2.3-3.2-.5-4.7-.4-4.7 1.5-2.9 1.5-2.9 3.4-3.2 3.3-3.1 4-1.9 3.9-1.8 2.9-4.3 2.8-4.2 1.8-.9 1.7-.9 3.4-.4 3.5-.4v-2.9l-3.5-1.7-3.5-1.8-2.5.1-2.5.2-2.3.4zm20.1 2.3-3.3 2v3h1.8l5.1 4 5 4h4.9l1.6-.6 1.6-.6v-4.7l-2.1-3.6-2.2-3.7-2.4-.9-2.4-.9h-4.4l-3.2 2zm70-.6-3.3 1.5v2.1h7.5l4.2 2 4.3 1.9 4.9 4.9 4.8 4.8 1.8 5.3 1.7 5.2-.4 2.3-.5 2.3 4.3 1 4.3 1 .6-2.8.7-2.9-.7-2.9-.6-3-1.5-1.2-1.4-1.2-3-1.6-3.1-1.6-3.2-5.9-3.3-6-3.6-2.9-3.6-2.9-3.8-.4-3.9-.4-3.2 1.4zm-24.5 3.9-2.6 2.4-.7 2.2-.7 2.3.5.4.5.5 6.2-1 6.2-1 1.4-1.2 1.4-1.2-1.2-1.4-1.2-1.4-2.7-1.5-2.8-1.4h-1.8l-2.5 2.3zm83.6.6-4 1.8-4.7 5.5-4.7 5.5v5.5l2.8 3.3 2.9 3.2 2.2-1.8 2.3-1.9 4-1 4-1.1 2.7.6 2.7.6 3.3-4.6 3.2-4.5 4.4-3.7 4.4-3.6-.6-1-.5-.9-4.2-1.9-4.1-1.9h-12l-4.1 1.9z"/><path d="m360.5 106.5-3 1.6-1.1 1.2-1.2 1.2-.7 2.3-.7 2.3 3.4-.5 3.3-.5 5.6-.7 5.7-.6 3.4 1.1 3.5 1.1 2.7 2.9 2.7 2.9 1.3 4.3 1.3 4.3 2.7.7 2.7.8-.6-3.2-.7-3.2-1.7-4-1.8-4-3.4-3.3-3.4-3.4-3.8-1.9-3.8-2-4.7-.5-4.7-.5-3 1.6zm102.3.9-6.7 2.4-4.5 3.6-4.5 3.7-2.5 3.4-2.6 3.4v2l1.1.6 1 .7 3.5-1.7 3.5-1.6 3.2-.6 3.3-.5 3.9 1.7 4 1.7 8.1 1.8 8.1 1.9 6.6 3 6.7 3 5.5 5.2 5.5 5.2 2.6 5.2 2.5 5.3-.2 6.7-.2 6.6 2 2 2 2 3-2.5 3-2.5 3.3-6.3 3.3-6.2v-11.1l-1.5-3.6-1.5-3.5-3.3-3.8-3.3-3.7-2.6-1.3-2.6-1.4-8.3-1.5-8.3-1.6-2.8-2-2.8-2-3.8-6.5-3.8-6.5-3.2-1.6-3.3-1.5h-6.7l-6.7 2.4zm-178.1-.3-1.7 1-2 3.9-2 3.8-5.5 2.7-5.5 2.8-2.5 2.9-2.4 2.9-1.2 3.9-1.2 3.8 2.4 4.9 2.4 4.8.6-5 .7-5 1.2-3 1.1-3 2.5-3.3 2.6-3.3 3.8-2.5 3.8-2.5 5.3-1.5 5.4-1.4 3.5.5 3.5.5 1.5-.9 1.4-1-1.9-2.1-2-2.2-2.7-1.4-2.7-1.4h-3.3l-3.3.1-1.8 1zm60.2 5.8-4.6.7-1.5 1.4-1.5 1.5-.5 4.3-.6 4.2h5.4l4.6-4.3 4.5-4.2.7-2.3.7-2.2-1.3.1-1.3.2-4.6.6zm-88.7 1.2-2.3.9.7 1.1.7 1.2-1-.6-1.1-.7-1.3 3.2-1.3 3.1-3.8 4.4-3.8 4.4-.6 2.5-.6 2.5.5 3.7.6 3.6 2.5 2.5 2.5 2.5.6-1.6.6-1.6-1.5-3.1-1.6-3v-6.2l1.5-2.9 1.5-2.9 5.8-4 5.9-4 1.6-2.4 1.6-2.5-1.5-.6-1.6-.6-1.1.1h-1.2l-2.3 1zm56.1 2.4-4.3 3.6-1.1 4-1.2 3.9.5.6.6.5 6.6-1.2 6.6-1.2v-1.8l-1.1-2-1-2-.7-4-.7-4-4.2 3.6z"/><path d="M370 115.8v.8l3 1.7 3 1.8 2.2 3.9 2.3 3.9 1.7.5 1.8.4v-.9l-1.4-3.2-1.3-3.2-1.9-2.1-1.9-2.1-3.4-1.1-3.4-1.2h-.7v.8zm-84.5 2.4-3 1.1-3.5 2.5-3.5 2.6-1.3 1.6-1.2 1.5-1.9 3.5-1.9 3.5-.7 4.9-.8 4.8 4.2-2.1 4.1-2.1v-6.5l2-3.3 2-3.2 3.2-2 3.3-2h10l3.7.9 3.6.9.7-2.5.6-2.5-.3-.2-.3-.2-2.8-1.2-2.8-1.2-5.2.1-5.2.1-3 1zm68.5 0v1.3l-.6 2.2-.6 2.2 3.5-.6 3.5-.5 7.1 2.2 7.1 2.2 1.6-.4 1.7-.3-2.8-3.3-2.7-3.3-3.5-1.4-3.5-1.5H354v1.2z"/><path d="m285.4 126.6-3.1 1.5-2.1 3.8-2.2 3.9v3.2h1.5l1.3-3 1.4-3 4.4-2.6 4.5-2.6 4.2.5 4.2.5 1.9.8 1.9.7-.8-1.2-.7-1.3-3.4-1.4-3.3-1.4h-6.6l-3.1 1.6zm126.3 2.7-1.8 3.3 1.8 3.2 1.8 3.2 1.4.5 1.4.5 1.3-1.1 1.4-1.1v-5.1l-2.1-3.3-2.1-3.4h-1.3l-1.8 3.3zm15.3-1.2-2.5 1-1.7 1.6-1.8 1.6v5.5l5.3-1.4 5.2-1.4h9.1l8.5 2.1 8.4 2.1 3.7 1.9 3.7 1.9h4.4l-.6-4-.5-4.1-1.7-2.5-1.7-2.6-3.3-1.4-3.4-1.4h-4.8l-4.5 2.4-4.4 2.3-2.7-1.9-2.6-1.9-4.8-.4-4.8-.5-2.5 1.1zm-224.2.6-1.8.4v1.9l-.7-.2-.8-.1-1.8.8-1.8.8-3.5 4.6-3.5 4.6-6.4-.3-6.4-.4-3.1 1.9-3.1 1.8-2.2 3.4-2.1 3.5-.1 5.2v5.3l1 1 1.1 1.1 5.2-2 5.2-2 5.5-.6 5.5-.7 3.8-3.8 3.9-3.7 4.3-1.2 4.4-1.2 2.7.6 2.8.5 3.7-5 3.6-5 4.4-3.3 4.3-3.3-4.8-2.7-4.9-2.6-6.3.1-6.4.1-1.7.5zm268.9 6.2.7 3.6-.2 3.2-.2 3.3h1.9l2.5 2.5 2.5 2.5.8 1.2.8 1.3 3.7 2.8 3.7 2.8 3.1 4.3 3 4.4 1.5 5.8 1.5 5.7-.7 2.6-.6 2.6 1.6-1.4 1.7-1.4 3.4-4.6 3.4-4.6 1.2-4.4 1.1-4.3-1.1-4.8-1.1-4.8-2-2-1.9-2.1v-1.8l-4.3-4-4.3-3.9-5.6-2.8-5.6-2.7-5.6-1.3-5.6-1.3.7 3.6zm-237.6-.9-4.4 2-4.7 3.5-4.7 3.4-2.8 4.1-2.9 4.1 1.5 1 1.4.9 1.5-.6 1.5-.7 4-1.4 3.9-1.4 3.6.6 3.5.6 2 1.3 2 1.3 3.8.6 3.7.6v-3.8l-1.9-1-1.9-1.1-2.2-4.5-2.2-4.6.6-3.4.7-3.5h-1.6l-4.4 2z"/><path d="m426.5 139.7-2 .5-1.3 1.1-1.3 1 3.8 2.2 3.7 2.3 3.5-2.9 3.6-2.9h2.4l.6-1 .6-1-5.8.1-5.8.1-2 .5zm-270.6 4.6-4.4 2.3-1.7 3.5-1.8 3.4v10.7l1.8-.8 1.7-.7 4.7-1.6 4.6-1.6.7-4.5.7-4.5 2.4-4.3 2.5-4.2h-6.8l-4.4 2.3zm300.9 2.8-2.8 1.1v1.8h5.6l5.2 2.6 5.2 2.6 3 3.6 3 3.7 2 5 1.9 5-.5-6.5-.6-6.5-2.4-5.1-2.4-5.1-2.7-1.2-2.7-1.2-4.6-.4-4.5-.5-2.7 1.1zm-257.5 7.6-3.3 1.8-2.5 3.4-2.5 3.5v2.4l4.3-2.1 4.2-2.1 10 .1 10 .1 7.9 2.5 7.9 2.6 3.3-2.7 3.3-2.6-.9-1.7-1-1.7-3.1-2.6-3.1-2.6h-8.5l-3.4 2.3-3.5 2.3-4.3-2.3-4.4-2.3h-7.2l-3.2 1.7z"/><path d="M452 153.3v.6l3.8 1 3.8 1.1 2.5 2.7 2.6 2.8 1.6 5.4 1.7 5.3v2.7l.1 2.6 3.9 4.5 3.9 4.5.1-6.4v-6.4l-1.1-3.6-1.1-3.6-2.6-4-2.7-3.9-4.6-2.3-4.5-2.4-3.7-.6-3.7-.6v.6zm30.4 6.5.6 1 .1 10.7v10.7l-2.4 3.7-2.5 3.7 2.8 3.8 2.8 3.7 2.2-2.3 2.2-2.3 1.8-3.5 1.8-3.5.6-4.1.7-4.2-1-4-1.1-4-3.3-4.8-3.2-4.8-1.4-.4-1.4-.5.7 1.1zm-305.7 4.7-4.8 1.3-3.4 2.3-3.4 2.4-2.1 3.8-2.2 3.8.5 3.2.4 3.2 2.4 5.3 2.3 5.2-1.5 6.3-1.4 6.2v15.4l4 3.6 4 3.6 5.2 3 5.1 3 1.2 1.4 1.2 1.5h4.8v-.8l-5.9-5.9-5.9-5.9-2-4-2-4-1.6-6.1-1.6-6.1v-8.8l1.6-5.5 1.6-5.4 2-3.9 2-3.9 4.3-4.6 4.3-4.6.7-3.3.7-3.2-2.9.1-2.8.1-4.8 1.3z"/><path d="m154 165.6-3.5 1.5-2.3 2.2-2.4 2.2-2.4 4.7-2.4 4.7v10.2l1.4 3.4 1.4 3.4 5.1 7.8 5 7.8 1.2 4.8 1.3 4.7h3.6l-.6-5.8-.6-5.7 1.6-6.1 1.6-6.2v-5.7l-1.4-2.7-1.4-2.6-1.1-3.5-1.2-3.6 1.1-4.2 1.2-4.3 2.3-3 2.2-3.1-.4-1.3-.5-1.2h-2.6l-2.7.1-3.5 1.5zm372.2.8-1.1 2.5-3.6 4-3.7 4 1.9 2.8 2 2.8 1.4 3.5 1.4 3.5v14l2 .2 2 .2 4.7-5.5 4.7-5.6 1.1-5.3 1.1-5.3-1.2-4.6-1.1-4.6-4-4.5-4-4.5h-2.5l-1.1 2.4zm-327.7-.2-3 1.1-4.1 2.8-4 2.7-3.7 4.1-3.6 4-1.9 3.8-1.9 3.8-1.3 5.4-1.3 5.4.6 6.2.6 6.1 2.1 5.7 2.1 5.6 4.5 5.1 4.6 5h2.3l2.1-5.5 2.2-5.4-3.5-2.7-3.5-2.7-2.4-5.1-2.4-5.1v-11.1l2.6-5.2 2.6-5.3 4-3.2 4-3.2 5.7-5 5.6-5 2.5-1.7 2.5-1.7H207l-5.5.1-3 1z"/><path d="m216 168.9-2.5.8-3.3 1.7-3.2 1.7v1.4l7.2-.5 7.3-.6 3.4-1.8 3.4-1.8-1.4-.9-1.4-.9-3.5.1-3.5.1-2.5.7zm292 5.9v.8l-5.1 5.8-5.2 5.7 2.2 3.9 2.1 3.8v5.2l2.8-.7 2.7-.8 3.8.2 3.8.3 1.9 1 2 1.1 1.1-.7 1.2-.7-.6-5.7-.5-5.7-1.6-3.2-1.7-3.2-3.6-4-3.5-3.9H508v.8zm-303 4.1-2.5.8-4.3 2.2-4.2 2.2-3 4.1-3 4.1-1 3.9-1.1 3.8.7 3.8.7 3.7 1.8 3.7 1.9 3.6 3 2.2 3 2.1v-1.8l-1.7-3.4-1.8-3.4v-15.2l3.3-4.9 3.4-4.9 3.1-2.3 3.2-2.3 2-1.4 2-1.4H209l-1.5.1-2.5.7zm286.7 14.5-2.8 4.4-1.4 1.2-1.5 1.2 2.2 3.9 2.2 3.9h4.6l1.6-2.5 1.7-2.6v-7.8l-1.9-3-1.9-3-2.8 4.3z"/><path d="m199.7 192.3-1.7 2.6-.9 4-.9 4 .8 3.9.7 3.9.7 1.2.8 1.2 3.2-5.3 3.3-5.3-.8-1-.7-1-1.4-5.4-1.4-5.4-1.7 2.6zm302.8 11.2-2.5 2.4v2.1h.9l2.6-1 2.6-1 4.5 1.1 4.5 1.2 4-1.2 3.9-1.2v-1.5l-4.7-1.7-4.8-1.7h-8.6l-2.4 2.5z"/><path d="m522.5 208.1-5 2-5-.6-5-.7-2.4.1-2.4.1-2 1.8-2 1.7-1.2 2.9-1.2 2.9.4 1.8.5 1.8 2.2-.8 2.1-.8 3 .2 3 .1 2-1 2-1.1 3.3-2.8 3.3-2.7h7.8l1.6 2.2 1.5 2.3 1.8-1.3 1.7-1.2 3.3-1.7 3.2-1.7v-2.5l-3-1.6-2.9-1.5h-2.8l-2.8.1-5 2zm19.6-.2-1.4.9.7 1.1.7 1.1h5l2.9 1.5 2.9 1.5 1.1 2 1.1 2 .6 6.8.6 6.7.9 1.8.9 1.8 1.5-1.2 1.4-1.1v-6l-1.9-2.7-1.9-2.7-.8-3.9-.7-4-3.3-3.3-3.2-3.2h-5.7l-1.4.9zm-395.9 5.7-2.2 1.5-1.5 2.9-1.5 2.9v6.2l1 2 1.1 1.9h2l3.4-3.5 3.5-3.4v-3.8l-1.1-3.4-1.2-3.4-.6-.7-.7-.8-2.2 1.6z"/><path d="m535.2 216.1-5.3 3 .4 1.2.4 1.2 5.9-.3 5.9-.3 3.2 2 3.2 2 1.8 3.3 1.7 3.3.1 7.5.1 7.5 1.8 3.4 1.8 3.4-.5 2.3-.4 2.4 1.3 1.1 1.4 1.1 1.5-.6 1.6-.6 1.5-3.7 1.6-3.7-.6-2.8-.6-2.8-4.4-6.4-4.4-6.5-.7-7.7-.7-7.7-2.4-2.3-2.3-2.4h-7.6l-5.3 3.1zm-27 7.9-2.3 3h-3.8l-.6 1-.6.9.7 2.7.7 2.7.9-1.6.9-1.6 5.1-1.6 5.2-1.5h5.4l1.2-1.5 1.3-1.5-.4-.3-.4-.2-3.2-1.8-3.1-1.7h-4.8l-2.2 3z"/><path d="M537 223.5v.7l2.5 2 2.5 1.9 2.8 4.7 2.7 4.7v16.2l2.4 1.1 2.5 1.2h1.6v-2.5l-2.1-4-2.1-3.9.6-4.4.6-4.5-1-3.8-1.1-3.9-2.2-2.5-2.2-2.6-3.7-.6-3.8-.6v.8z"/><path d="m526.2 225.2-2.3 1.1.4 1 .3 1.1 4 1.8 3.9 1.9 2.4 1.2 2.4 1.2 2.1 2.8 2.1 2.9-.1 5.9-.1 5.9h3.5l.7-4 .7-4-.7-3.2-.7-3.3-1.9-3.7-1.9-3.7-3.3-2.5-3.4-2.6-2.9-.5-2.9-.4-2.3 1.1zM151 228.6l-3.1 2.7 1 1 1 1 4-1.8 4-1.8 4.2.6 4.1.5 2.3 2.2 2.3 2.2 3.3 4.8 3.3 4.8 2.8 1.6 2.8 1.7v-7.2l-2.6-2.4-2.7-2.5h-2.4l-4.4-3.8-4.4-3.9-2.2-1.1-2.2-1.2h-7.9l-3.2 2.6zm360.8 2.3-3.6.8-2.6 1.7-2.6 1.6v1.1l1 1.9 1 1.9 6.5-4.5 6.5-4.6v-.8l-1.2.1-1.3.1-3.7.7z"/><path d="m519.9 231.6-1.4 1.7 2 1.1 2 1.1 4.2 4.2 4.1 4.1.7 3.1.7 3.1.9-.6.9-.5v-8l-1.5-2.9-1.5-2.9-3.7-2.6-3.8-2.5h-2.3l-1.3 1.6zm-362.4 1.1-2 .5-2.7 1.9-2.7 1.9-2.5 5.5-2.6 5.4v3l1 .6 1.1.7 4.3-4 4.2-3.9 3.7-.7 3.7-.7 4 1.1 4 1.1 3.5 3.5 3.5 3.5 2.4 4.6 2.3 4.7.7-3.4.7-3.5.5-1.6.5-1.7-2.4-.6-2.4-.6-2.6-2-2.7-2.1-3.7-5.6-3.7-5.6-3.2-1.3-3.3-1.4-.8.1-.8.1-2 .5zm-21.1 3.2-3.1 1.9-4.4 5.8-4.5 5.9-4.4 1.5-4.5 1.6-2.1 1.2-2.1 1.1-1.8 3.7-1.7 3.6.6 3.2.6 3.3 1.3 1.7 1.3 1.7 5.4-3.6 5.5-3.7 1.7-3.1 1.7-3.2.5-2.8.6-2.7 2.8-3 2.7-3.1 3-.1h3l2 .6 2 .6 2.7-6.1 2.8-6.1-.6-.9-.5-.9h-7.4l-3.1 1.9zm374.4 2.4-2.8 2.3v7.5l1.5 2.9 1.5 2.8 3 2.2 3.1 2.2.5-.5.5-.5-2.5-2.5-2.5-2.5-1.1-4.2-1.1-4.1 2-3.5 2.1-3.5v-.9h-.7l-.8.1-2.7 2.2z"/><path d="m516.2 239-2.2 2.9v5.2l3.1-3.6 3.1-3.5h2.8v-1.9l-1.9-1.1-2-1h-.7l-2.2 3zm-392.7.7-3 .4-4.6 1.5-4.6 1.5-2.1 2.2-2.1 2.2-1 2.8-1.1 2.8.6 2.4.6 2.4 3.7-3.9 3.6-3.8 3.5-.7 3.5-.6 1.5-1.2 1.6-1.2 2.8-3.8 2.8-3.7-1.3.1-1.4.2-3 .4zm395.9 4.7-3.4 3.4v5.1l1 .6 1 .6v-4.8l2-2.6 2.1-2.6 1.9-.6 2-.6V241h-3.2l-3.4 3.4z"/><path d="m525.3 245.1-2.2.8-1.7 2.6-1.7 2.6 1.1 2.4 1.2 2.5 2.2-.1h2.3l-2.3-1.1-2.3-1.1.3-1.9.3-1.9 3-1.7 3-1.7.4-.3.5-.2-1-.9-.9-.9-2.2.9zm-368.3 2-4.5 2.2 5.6 1.2 5.7 1.2 4.5 2.6 4.5 2.7 2.7 3.2 2.7 3.2 1.1 2.3 1 2.3h1.7v-3.1l-3.1-5.7-3.1-5.7-2.7-2.9-2.6-2.8-2.3-.9-2.3-.9-2.2-.5-2.2-.5-4.5 2.1zm-25.5 4.5-2.5 2.7v4.3l5.3-.6 5.2-.6 2.3-1.2 2.2-1.3v-1.8l-2.9-2-2.9-2.1h-4.3l-2.4 2.6z"/><path d="m150.5 253.5-4 1.4-1.7 2.2-1.8 2.1v2.8h7.3l3.7-1.1 3.8-1.2 3.6.7 3.6.7 3.9 3.7 3.9 3.7 1.2 4.3 1.3 4.2-1.2 5.8-1.2 5.7-.8 3.7-.8 3.8h1.5l2.6-3.1 2.6-3 1.5-5.4 1.6-5.4-1.5-5.6-1.5-5.7-2.6-3.8-2.7-3.8-3.8-2.7-3.8-2.6-4.8-1.5-4.7-1.4h-.6l-.6.1-4 1.4zm380.6 3.4-3.1 2.9v1.2l4.3-.6 4.3-.6 4.7 2.1 4.6 2.1h5.6l2.3-.6 2.2-.6v-1.4l-6.2-3.7-6.3-3.7h-9.3l-3.1 2.9zm-397.4 3.6-5.9 1-1.4 1.9-1.4 2v5.9l-3.5 3.8-3.5 3.9-.1 1.8-.1 1.7.1 2 .2 2 2.5 2.2 2.5 2.3h1.7l-.5-3.9-.5-4 2.2-4.5 2.2-4.6 6-5.4 6-5.4-.4-1.9-.3-1.9-5.8 1.1zm-32.9 3.5-4.8 4.1-1 4-1.1 4 .6 2.2.7 2.2 3.9 6.6 3.9 6.5v12.9l2.6 3.9 2.6 3.8 3.4 1.4 3.3 1.4h4.1v-10.8l-2.4-.6-2.4-.6-3.3-2.7-3.2-2.7-1.8-4.1-1.9-4v-6.3l2.9-5.5 2.9-5.5-1.5-2.2-1.5-2.2-.7-5-.6-5-4.7 4.2zm412.6-1.8-3 1 .9 6.6.8 6.7.3.2.3.3 3.1-.6 3.1-.6.6-2.9.6-2.8 2.5-3.7 2.5-3.6-.3-.4-.4-.3-3.9-.5-4-.5-3.1 1.1z"/><path d="m161.1 265.4 3.6 2.4 1.9 2.9 1.9 2.8V287h.4l1.6-3 1.5-2.9v-8.6l-2-3.2-1.9-3.2-3-1.6-3-1.5h-4.6l3.6 2.4zm366.5-.9-1.9 1.5-1.9 2.7-1.8 2.8v4.5l5.8.2 5.7.2 2.9-.2 2.8-.2 4.2-2.5 4.3-2.5h7.4l2.3 2.3 2.3 2.3.4 1.3.4 1.2 4.9-2 4.8-2.1h3.9l-.3-2.2-.3-2.2-3.4-2.3-3.4-2.3h-8.3l-5.7 1-5.7 1.1-4.6-2.1-4.7-2h-4.1l-4.1.1-1.9 1.4z"/><path d="m145.4 264.8-3.2.3-.4 3-.5 2.9h9.6l4.8 1.6 4.8 1.6 2.6 2.4 2.5 2.4h1.3l-.9-3.2-1-3.1-2.2-2.5-2.3-2.4-2-1.1-2-1.1-4-.5-4-.6-3.1.3zm-10.1 6.1-4.2 3.8-2 3.4-2.1 3.4v8.7l2.1 3.8 2.1 3.8 3.8 2.1 3.8 2.1h3.3l-4.5-5.6-4.6-5.6v-7l3.5-8 3.6-8.1-.3-.3-.3-.2-4.2 3.7zm-18 .1-4 3-2.8 4.2-2.9 4.3-.4 5.3-.4 5.2 2.5 3.9 2.5 3.8 3.5 1.6 3.5 1.7h5.2v-10.5l-2.8-1.2-2.8-1.3-1.7-2.9-1.7-2.9v-6.1l4-4.6 4-4.6V268h-1.6l-4.1 3zm459.3-1.2-.6 1 1.6 1.6 1.5 1.6h3.2l3.3 2.5 3.2 2.5 1.2 3.4 1.1 3.5-1.1 6.2-1.2 6.3.7 3.3.6 3.4 1.1-.3 1.2-.4 1.9-2.6 2-2.7-1.3-4.3-1.2-4.3-1.4-7.5-1.4-7.5-2.8-2.7-2.7-2.7-4.1-.7-4.1-.6-.7 1z"/><path d="m143.6 274.2-.4 1.3-.6 3.3-.6 3.3 1.7 3.2 1.7 3.2.7-4.6.7-4.7 1.1-2 1.1-2.1V273h-5.1l-.3 1.2zm403.2 0-2.8 1v1.6l5.3 3.6 5.2 3.6h4.7l-.6-1.6-.6-1.6V277l-2-2-2-2-2.2.1-2.3.1-2.7 1zm-395 1.5-1.5 1.8-1.3 3.7-1.2 3.8 1.2 3.4 1.1 3.4 1.6.6 1.6.6.4-.3.3-.4-1.5-2.9-1.5-2.9v-4l2-3.8 2-3.7v-1h-1.7l-1.5 1.7z"/><path d="M137.8 278.8 136 283v4.1l1.6 2.5 1.7 2.5 4.2 2.4 4.2 2.5h7.2l.6-1 .6-1h-5.7l-4.9-4.4-5-4.3-.5-5.9-.5-5.9-1.7 4.3zm430.8-1.3-5.9 2.4-1 1-1 1 1.2 1.5 1.2 1.4 3.9-.5 3.9-.5 4.6 2.2 4.6 2.2 2 4.1 2.1 4-.7 7.6-.6 7.6-.1 4-.1 4 .8 4 .7 4-2.6 3.8-2.6 3.8.5.9.5.8 3.7-1 3.6-1 1.9-2.1 1.9-2.2 1.5-3.2 1.4-3.2v-5.3l-3.6-8.1-3.6-8.2.7-9.1.7-9.2-1.6-3-1.5-3-4.1-1.6-4-1.6h-2.5l-5.9 2.5zM155.5 279l-1.5 2.9v5.8l1.8 1.6 1.9 1.7h3.1l1.3-1.6 1.4-1.7-2.3.7-2.3.8-1.5-1.3-1.5-1.3.6-2.5.7-2.6 1.5-1.7 1.5-1.7-.7-1-.6-1.1h-1.8l-1.6 3zm360 .1-3 .8-.1 11.9-.1 11.9 1.8-1.8 1.8-1.8-.6-5.5-.6-5.5 1.7-2.7 1.8-2.6 3.3-1.4 3.4-1.4h7l.5-.9.6-.9-2.3-.6-2.2-.6-5 .1-5 .1-3 .9z"/><path d="m535.2 281-3.2 3h-9.1l-1.8 1-1.8.9-1.3 3-1.2 3.1.6 2.5.6 2.5h2l1.6-2.6 1.7-2.5 3.8-2 3.8-1.9h17.9l1.2-1.5 1.3-1.5-.4-.4-.4-.3-3.5-2.6-3.5-2.5-2.5-.6-2.5-.6-3.3 3zm19.1 6-2.3.9v1.2l3.2 2.7 3.2 2.7 2.6 1.1 2.7 1.2 2.1 2.7 2.2 2.8 1.1 3.6 1.1 3.7-1.2 4.4-1.2 4.4-3.8 3.6-3.8 3.5-4.2 3.2-4.2 3.3H550v2h6.5l4.1-1.9 4-1.8 3.7-4.4 3.8-4.3 1.5-5.5 1.6-5.4-.7-5.1-.6-5.1-2.7-4.8-2.6-4.8-4.1-2.5-4.2-2.4-1.9.1h-1.9l-2.2.9z"/><path d="M568 286.5v.6l3 3.7 2.9 3.7 1.6 4.4 1.5 4.4v12.2l-2.4 5-2.3 5-3 3-3.1 3-.6 2.2-.7 2.3h5.2l3.3-1.4 3.3-1.4 2.2-2.3 2.1-2.3v-6.3l-1.1-3.2-1.1-3.1 1.7-6.5 1.8-6.4-.6-4.2-.6-4.2-1.9-2.6-1.9-2.6-2.4-1.1-2.4-1.2-2.2-.7-2.3-.6v.6zm-37.6 4.6-3.2.9-3.1 3.5-3 3.5-1 3.8-1.1 3.8 1 3.5 1 3.5 1.3 1.9 1.4 1.8.7-7.1.7-7.1 2-2.5 1.9-2.5 8-3.2 8-3.3V290l-5.7.1-5.8.1-3.1.9zm16.9 1.7-2.2 1.7 3.8 3.7 3.7 3.8 2.2 4.4 2.2 4.3v3.4l.1 3.4 1.9-2.4 2-2.3v-9.1l-2.5-4.3-2.5-4.3-2.9-2-2.9-2.1h-.7l-2.2 1.8zm-372.1 3.3-4.4 3.8-5.4 2.1-5.5 2h-2.8l-.6.9-.5.9 2.6 2.1 2.7 2.1h2.6l2.6-.1 1.7-1.3 1.7-1.3 1-2.5 1-2.6 3.6-.6 3.6-.7.5-1.4.5-1.3-.3-3-.3-3-4.3 3.9zm-48.6 1.8-.6 1 .9 4.1.9 4 1.7 2.6 1.7 2.6 4.1 1.9 4.2 1.9h9.3l4-2.6 4.1-2.7-1.5-2.2-1.5-2.3-6.2-.7-6.2-.7-3.8-.9-3.7-1-3.4-3-3.4-3-.6 1zm15.5-.1v.7l3.1 2.4 3.1 2.5h6.6l2.6-2.4 2.5-2.3V297l-2.6 1-2.5 1h-7.8l-2.5-1-2.6-1 .1.8z"/><path d="m534 298.9-3.5 1.8-.9 3.6-.9 3.6 1.2 4.3 1.3 4.2 3.4 3.4 3.5 3.5.6-.7.6-.6-2.2-2.4-2.3-2.5-.5-6.4-.5-6.4 3.2-3.6 3.2-3.7h-2.7l-3.5 1.9z"/><path d="m540.9 300.3-2.6 2.2-1.1 2.2-1.2 2.2v3.5l3.3-3 3.2-3.1 3.3-1.3 3.3-1.3-1.7-1.8-1.7-1.9h-2.2l-2.6 2.3zm21.1-.8v1l1 3.7 1.1 3.8-1.2 4.2-1.1 4.3-4.4 4.2-4.4 4.3h1.1l3.3-1.4 3.3-1.4 2.7-2.8 2.6-2.9.6-3.2.6-3.3-.6-3.3-.6-3.2-2-2.5-2-2.5v1zm-47.1 5.1-1.6 1.9-1 2-1 2-.7 5-.6 5.1 2.9 4.6 2.9 4.6 4.4 2.6 4.3 2.5 2.7 1 2.7 1-.3-4.4-.2-4.5-4.5-5.2-4.6-5.3-1.3-2.4-1.3-2.5-.6-4.9-.6-4.9-1.6 1.8zm31.8.9-3.9 1.3-2.4 2.3-2.4 2.2v6.6l1 .6 1 .6v-4.9l2.9-3.1 2.9-3.1h3.2v-1.9l1.5.5 1.5.6v-2.1l-.8-.4-.7-.5-3.8 1.3zm-371.2 1.6-4 2.2-3.5 1.8-3.4 1.9h-8.2l-2.3 1.6-2.3 1.7-1.4 3.3-1.4 3.3v2.1h8l2-4 2.1-4.1 3.2-1.9 3.2-2h6.6l4.1 2.1 4.1 2.1-.6-3.9-.7-3.8V305h-1.6l-3.9 2.1zm-53.8.6-.7.6v7.8l1.9 3.7 1.9 3.7 1.9 1.7 1.9 1.7 3.7 1.6 3.8 1.6 3.2-.6 3.2-.6 2.1-1.7 2.2-1.7.6-3.5.6-3.5-4.8-.2-4.9-.3-3.5-1.4-3.6-1.5-3.4-4.1-3.5-4h-2l-.6.7z"/><path d="m546.9 311.3-3.4 2.3-.3 2.7-.3 2.8 1.2 1.5 1.1 1.4h1.7l1.6-.1-1.7-1.3-1.8-1.3v-4.1l3.4-1.6 3.4-1.6h2.2v-3h-3.7l-3.4 2.3zm-19.9 5v3.8l1.5 2.9 1.5 2.9 3.3.9 3.2.8 2.2-.4 2.3-.4V325h-3.5l-3.1-1.9-3.1-1.9-2.1-4.3-2.2-4.4v3.8z"/><path d="m549.8 315.6-2.8 1.5v.9h6.1l-.6-1-.6-1 .8.2.8.3.3-1 .4-1-.9-.2-.8-.2-2.7 1.5zm-383.7.6-2.4 1.3-1.8 2.5-1.9 2.5-.6 3.2-.6 3.3 4.2-.2 4.2-.1.8-2.3.9-2.2 2.3-1.6 2.2-1.6h5.2l2.2 1.6 2.2 1.5-.1-3.3-.1-3.3-.5 1.2-.4 1.2-2.8-2-2.8-2-3.9-.5-3.9-.5-2.4 1.3z"/><path d="m171.7 324.8-1.7 1.9v1.8l4.4.1 4.4.1 3.1 2.2 3.1 2.2v-3.7l-3.3-3.2-3.3-3.2h-5.1l-1.6 1.8zm336 6-1.6 5.6.5.8.5.8h4.4l3.2 1.9 3.2 2 2 4.7 2.1 4.7 1.8 1.3 1.7 1.3h3l3 .1 4.5-2.1 4.5-2 3.3-3.2 3.2-3.1v-2.8l-2.2.7-2.3.7-2.2.5-2.3.5-3.5-2.1-3.6-2.1h-3l-5.4-2.6-5.4-2.5-3.9-4.4-3.9-4.4-1.6 5.7zm-360-2.3-2.8 1.5-1.9 2.2-1.9 2.3-.1 4.6v4.5l1.5 2 1.4 1.9.1 3.7v3.7l-.9 2.4-.9 2.4 1.1 2.4 1.2 2.3 3.1 2.1 3.1 2.1 5.2.3 5.1.2v-2.9l-2.3-.6-2.3-.5-3.3-7.3-3.4-7.2-.5-4.3-.5-4.3 1.8-4.6 1.7-4.5 2.4-1.6 2.4-1.5V327h-6.5l-2.8 1.5z"/><path d="m160.2 331-3.3.8-1.9 1.7-1.9 1.7-1.2 3.5-1.1 3.5.5 4.3.6 4.2 1.2 2.6 1.2 2.6 2.3-2.2 2.4-2.2v-9.2l1.1-3.4 1.2-3.4 1.8-2.1 1.9-2V330l-.7.1-.8.1-3.3.8z"/><path d="m168.3 331.7-3.3 1.7-2 4.1-2 4.1v1.7l4.5-4.2 4.5-4.1h5.9l5.1 2 5.1 2h.9v-3.1l-.8.5-.8.5-1.7-2-1.8-2-1.1.7-1.1.7.6-1 .6-1-2.5-1.2-2.5-1.1-2.2.1h-2.2l-3.2 1.6zm363.7.7v2.3l2.1 2.7 2 2.6h5.9l1.9-1.2 1.8-1.1 2.4 1.6 2.3 1.7h7.5l2-2.6 2.1-2.7v-1.8l-1.9 1.1-2 1h-8.6l-4.9-1.5-5-1.5-2.3-1.5-2.2-1.5H532v2.4z"/><path d="m574 336.9-1.5.8-4.9.7-5 .6-2.3 2.2-2.3 2.2-4 .1-4 .1-3.4 3.6-3.4 3.6-1.8 1.1-1.9 1.1 2.5 1.9 2.5 2 3.3.6 3.3.6 2.2-.7 2.2-.6 3.3-3.2 3.3-3.1h9.7l2.1-1.9 2-1.8 1.1-3.4 1.1-3.4-.6-2-.6-2h-.7l-.7.1-1.5.8zm-403.6 2.3-2.2 2.3-1.1 2.2-1.1 2.2v6.6l2.1-4.3 2.1-4.2 2.5-2 2.6-2h6.1l-1-1-1.1-1.1-3.4-.5-3.4-.6-2.1 2.4zm413.4-.8-3.8 1v4.1l-1.5 2.9-1.5 2.8v.8h5.8l2.1-1.8 2.2-1.7.8-3.6.8-3.7-.6-.9-.6-.9-3.7 1zm-398 6.8.3 4.3-2.5 5-2.5 4.9.4.5.5.4 2.7-1.4 2.6-1.4 1.8-3.9 1.7-3.9-1.5-4.3-1.5-4.4h-2.3l.3 4.2zm323.7-2.8-3 1.3-1.9 2.2-1.9 2.1h2l4.3-1.5 4.3-1.5 2.1.6 2.1.6-2.4-2.6-2.4-2.6h-.1l-.1.1-3 1.3zm-346.9 2.8-1.6 2.2v4.2l1.6 2.2 1.5 2.2h1.8l-1.1-3.1-1-3 .5-3.5.6-3.4h-.8l-1.5 2.2z"/><path d="m173 346.8-1.5.4-1.2 1.6-1.3 1.6v1.9l2-1.8 1.9-1.7 3.3.4 3.3.5 1.9.8 1.9.8-.5-1.4-.5-1.4-3.9-1.1-3.9-1.1-1.5.5zm336.3 3.2-3.2 1.9-1 2-1.1 2v2.6l.8-1 .7-1.1 3.3-2.3 3.3-2.3 3.9.4 4 .4v-1.3l-1.8-1.6-1.9-1.7h-3.8l-3.2 2z"/><path d="m172.2 352.2-1.2 1.2.1 2v2.1l.9-2.3.9-2.2h3l2.7 1 2.7 1.1.6-.7.6-.6-1.9-1.4-2-1.4h-5.2l-1.2 1.2zm-14.6 3.1-1.8 2.7.6 2.6.7 2.6 2.9 1.1 3 1.1v3.6l2 2 2 2h6v-2h-2.8l-3.6-4.2-3.6-4.2-.1-1v-1.1l-1.8-4-1.8-4-1.7 2.8zm33.4-1v1.3l-3 2.9-3.1 3-5.2.5-5.2.6 3 1.3 3 1.3 3.6-1.1 3.6-1.1 1.6-1.7 1.6-1.8 1-2.7 1-2.7-.9-.6-1-.6v1.4zm316.5 3.1-2 1.4 3.7-.1 3.8-.1 2.5 2.4 2.5 2.3.5-.5.5-.5-2.6-2.6-2.7-2.7h-1.5l-1.4-.5-1.4-.5-1.9 1.4zm14.9 2.7-1.8 4.1-4 3.4-4 3.4h5.6l2.8-1.7 2.8-1.6 1.1-2.1 1.1-2.1.9-2.7 1-2.8-1.8-.9-1.8-1-1.9 4z"/><path d="m192.5 359.9-.6 2-3.2 2.3-3.1 2.2-7-.2-7-.2-2.1-.6-2-.6 2.7 2.8 2.8 2.8 5.7.1h5.8l3-1.3 3-1.2 1.9-4.6 1.8-4.5-.5-.5-.5-.6-.7 2.1zm348.5.2-1 1.8v1.2l1.2-.7 1.1-.7-.5.9-.6.9 2.9 3.4 2.8 3.5 1.4-3.4 1.4-3.3-.4-1.6-.4-1.6-3.5-1.1-3.5-1.1-.9 1.8zm-13 5.1-1.2 6.2-2.9 2.7-3 2.8-3 .6-3 .7-5.7-2.8-5.7-2.8-1.7-1.5-1.8-1.4v2.9l1.6 2.3 1.7 2.3 4.1 1.9 4.1 1.9h7.9l4.3-2.1 4.4-2.1 2.4-3.2 2.5-3.3v-7.4l-1-2-1.1-1.9h-1.6l-1.3 6.2z"/><path d="m507.2 361.2-1.2 1.2.1 2v2.1l.9-2.3.9-2.2h2.5l2.3 2.2 2.3 2.1.5-.5.5-.5-.5-1.5-.6-1.5-2.5-1.2-2.5-1.1h-1.5l-1.2 1.2zm-313.3 3.7-1.3 4.2 2.8 5.5 2.8 5.4-1.8 4.5-1.7 4.6 1.2 2.3 1.3 2.3 2.6 1.5 2.7 1.6 4.2.7 4.2.7 1.8-1 1.8-1-2.7-1.2-2.6-1.2-1-2.2-1-2.1-2.6-5.7-2.6-5.7v-4.7l-3.4-6.4-3.4-6.3-1.3 4.2zm342.6-.6-.7 1.5 1.1 2.1 1.1 2v7l-3.1 3.5-3 3.5-5.7 1.2-5.7 1.2-3.7 2.5-3.7 2.4-3.6-.6-3.5-.7v2.8l1.8 1.5 1.7 1.6 2.3.7 2.2.6 3.2-.6 3.2-.7 5.2-5 5.3-5 6.3-2.1 6.3-2.2 1.3-2.8 1.3-2.8-1.1-3.3-1-3.2-3.5-3.4-3.4-3.3-.6 1.6zm-30.3 5.8.4 1.3 2.8 2 2.7 2.1h7.8l2.5-2.4 2.6-2.4v-1.8l-2.9 2-2.9 2.1h-6.7l-3.3-2-3.4-2.1.4 1.2z"/><path d="m532.7 373.6-2.8 4.3-5.5 2.7-5.5 2.7-5.6-.6-5.6-.6-1-1-1.1-1.1H502v1.4l2.3 3.3 2.2 3.2 2.8.7 2.8.6 3.9-2.6 4-2.6h6.1l3.9-2 3.9-2 1.1-2 1.1-2.1-.3-3.3-.3-3.3-2.8 4.3zM151 371.7v1.2l1 2.5.9 2.5 3 1.6 3 1.5h6.9l.6 1.5.6 1.6 3.2 1.4 3.3 1.3 1.7-.9 1.6-.9 1.6-1.6 1.6-1.5V380h-2.1l-3.3-2.5-3.3-2.5h-4.9l-2.3-2.1-2.3-2.1-5.4-.2-5.4-.1v1.2zm36-.1-3.5 1.2-4.2.1-4.3.1v2.8l2.5 1.6 2.4 1.6h6.8l2-2.3 2-2.2.6-1.7.6-1.7-.7-.4-.7-.4-3.5 1.3zm360.5-.4-.7 1.7.6.9.5.9-1 3.6-1 3.7-2 1.1-2.1 1.1-5.1 1.5-5.2 1.5-1.3 1.1-1.3 1 1.3.8 1.3.9h4.2l2.4-2.1 2.4-2.1 3.7-1.9 3.8-1.9 1.5-3 1.5-2.9v-3.7l-1.4-2-1.5-1.9-.6 1.7z"/><path d="m190.7 377.6-1.9 2.5-2.9.6-2.9.6-.5.8-.5.8 2.2 1.5 2.2 1.6h5.2l1.6-1.3 1.7-1.2.2-1.5.3-1.5-.7-2.8-.7-2.7h-.8l-.7.1-1.8 2.5zm293.7 5.6-.8 1.2.2 3.4.3 3.3-1.8 3-1.8 3.1-3.8 1.9-3.8 2-.7-.4-.7-.3-5.4 5.8-5.4 5.8h4.4l5.8-5.5 5.8-5.5 5.4-1.6 5.4-1.6 1.8-1.6 1.7-1.5v-7.4l-2.1-2.7-2-2.6h-1.8l-.7 1.2z"/><path d="M493 390.5v4.6l-2.5 2.4-2.4 2.5h-3.2l.6.9.5 1 2.9-1 2.9-1 2.2-2.4 2.2-2.3v-7.1l-.7-1-.6-1.1H493v4.5zm-289 10.8v1.8l1 2 1.1 1.9 3 1.6 3.1 1.5 2.6-.2 2.7-.3 2.8 2.8 2.8 2.8 3.1-.6 3.1-.6 1.4-1.2 1.4-1.1-4.2-4.3-4.2-4.3-.8.5-.7.4-2.8-1.1-2.9-1-.7-1.2-.7-1.1-5.5-.1-5.6-.1v1.9z"/></g><g fill="#FFF" stroke="#FFF" stroke-width=".1"><path d="m369 82.7-1.5.6-2.5 1-2.5 1.1H361l-1.5.1v3l-3 6.2-3 6.3-1.5-.7-1.5-.7H344l-2.4 2.3-2.4 2.2-1.7 5.6-1.8 5.6-1.6 1.4-1.6 1.4-4.7 3.4-4.7 3.4-1.2-1.5-1.2-1.5-.4-4.7-.4-4.7 2-3.2 2-3.2 5.7-1.7 5.6-1.8 3.6-4.4 3.5-4.3-1-1-1-1-2.7 4-2.7 3.9-3 1.1-2.9 1.1-3 1.1-3 1.2-2.6 3-2.5 3-.6-2.2-.5-2.1H315v5.8l-1.6.6-1.6.6h-4.9l-5-4-5.1-4H295v-3l3.3-2 3.2-2h3.5v-2h-5.5l-2.4 1.9-2.4 1.8-3.5-2.4-3.6-2.3-.7 1.2-.8 1.2 2.8 1.2 2.9 1.2.7 1.1.7 1.2-1.1 1.3-1.1 1.3-2.9-.5-3-.4-2.8 3-2.8 2.9-1.8 2.7-1.8 2.6-3.3 1.4-3.2 1.3-3.8 3.3-3.7 3.3-1.5 2.8-1.4 2.8v7.3l1.6 3.4 1.6 3.3 1.4 1.2 1.4 1.1 1.4-1.1 1.4-1.2.7-4.7.7-4.7 1.8-3.5 1.8-3.6 3.3-3.2 3.2-3.1 3.6-1.7 3.6-1.8 5.3-.4 5.4-.5 3.9 1.3 3.9 1.3v2.5l-.6 1.5-.5 1.5-3.7-.9-3.7-.9h-10l-3.2 2-3.2 1.9-1.6 2.5-1.7 2.5-.5 4.1-.6 4h2.3v-4.2l2.2-3.9 2.1-3.8 3.5-1.7 3.5-1.6 4.4.5 4.5.5 2.9 2.1 2.8 2.1h1.8l.7-4.2.7-4.2 4.7-4.5 4.6-4.5.8 4 .8 3.9 1.1 2.7 1.1 2.8h5.1l3.3-2.5 3.3-2.5h2.3l-.5 2-.5 2h2.6l.6-1.6.6-1.6V116l2.3-1.4 2.2-1.4 5.3-.5 5.3-.6-.7 2.2-.6 2.2-4.2 3.7-4.1 3.7 1.9.1h2l2.4-2.3 2.4-2.2-.7 2.7-.7 2.8h10.7l4 .5 4 .5-4.5-1.6-4.5-1.5-3.4.5-3.3.5.6-2.2.6-2.2V117h11.1l3.2 1.4 3.3 1.3 3.6 4.4 3.7 4.4.6-.7.7-.7-2.1-3.5-2.2-3.5-3.5-2.2-3.5-2.1.5-.5.5-.5 3.8 1.2 3.8 1.3 1.7 1.4 1.7 1.5 1.7 4.4 1.7 4.4h1.7v-3.1l-1.4-3.3-1.4-3.3-3.8-2.9-3.7-2.9h-5.1l-5.1.1-5.8.8-5.9.8.7-2.4.7-2.3 1-1.2.9-1.1 3.3-1.6 3.4-1.6h4.7l3.6 1 3.6 1 4.3 2.9 4.3 2.8 2.7 4.2 2.8 4.1 1.2 5 1.2 5h1.8v-4.6l-1.7-4.9-1.6-4.9-4.9-4.9-4.8-4.8-4.3-1.9-4.2-2h-7.7l.4-1.2.5-1.3 3.6-1.4 3.6-1.3 3.3.6 3.4.6 3.7 3.1 3.8 3.1 2.9 5.8 2.9 5.7 3.6 1.7 3.5 1.7 1.6 2.5 1.7 2.5-.7 4.4-.6 4.5 2.3-.5 2.3-.6 2.4 2.5 2.3 2.6h1.9l-1.7-2.6-1.7-2.6 1.8-3.4 1.9-3.4h1.3l2.1 3.4 2.1 3.3v5.2l-1 .6-1.1.7 1.2 1.4 1.1 1.4h3.4l1.1-1.1 1.2-1.2 7.7-.5 7.7-.5-.7 1.2-.7 1.1h-2.5l-3.4 2.9-3.5 2.9 1.7.7 1.7.7 2.8-2 2.8-1.9 3.4-1.1 3.4-1.2h7.2l1.4.9 1.4.9-4.1 2.1-4.1 2.1h-12l-.5.9-.6.8 5.1 3.2 5 3.1h4.6l2.1 2.3 2.2 2.3v3.3l2.1 1.2 2.2 1.1-.6-3.6-.6-3.6h1.8l2.1 2.7 2.2 2.8-.6 2.8-.6 2.8 3.5 3.6 3.5 3.6v-4.8l-1.8-5.7-1.8-5.8-2.4-2.5-2.4-2.5-4-1.1-4.1-1.2 1.3-.4 1.4-.5 4.4 1.2 4.5 1.3 3.8 2.8 3.9 2.8 2.6 5.5 2.6 5.5v15.9l1.3.5 1.3.5 2.3-3.3 2.2-3.3-.3-11.6-.3-11.6h1.2l2 2.2 2.1 2.3 2.3 4.5 2.3 4.5v6l-.1 6-2 4-2.1 4-2.1 2.2-2.1 2.2.6 1.6.6 1.6 1.2-.4 1.1-.4 3.6-5.1 3.6-5.1 1.8 3.1 1.8 3.1v7.6l-1.7 2.6-1.6 2.5h-4v2h6.2l-.7 1.7-.8 1.8-.4 2.2-.5 2.3h1.8l1.2-3.3 1.2-3.4 2.4-1.2 2.3-1.3h4.8l4.1.7 4.1.7 6.1-2.2 6.2-2.3v-1.6l-2.2-.3-2.3-.3V196l-.1-7.5-3.2-5.9-3.2-5.9 3.4-3.8 3.4-3.7 1.2-2.2 1.2-2.2-.6-1.4-.5-1.4h-1.6l-2 3.6-1.9 3.6-3 2.4-2.9 2.5-2-2-2-2 .2-6.5.2-6.4-2.5-5.5-2.6-5.4-5.5-5.2-5.5-5.2-6.3-2.9-6.2-2.8-7.5-1.7-7.5-1.7-4.7-1.9-4.7-1.9h-4.6l-4.4 2.1-4.5 2-1.3-.5-1.3-.5v-3.4l6.6-6.3 6.6-6.4-1.6-.6-1.6-.6-3.6 2.7-3.5 2.7-3.7 4.9-3.7 5-2.7-.6-2.6-.6-4 1.1-4 1-2.3 1.9-2.2 1.8-2.9-3.2-2.8-3.3V116h-3.2l.7 3 .7 3-2.2 4.5-2.1 4.4-1.5-.6-1.4-.5v-6.4l-1.6-2.2-1.6-2.3-3.9-2.4-3.9-2.5-2.5-4.8-2.5-4.7-1.2-1.6-1.3-1.6-3.9-2.7-3.9-2.6h-8.8l-2.7 1.4-2.7 1.4-2.4 2.6-2.4 2.6h-2.6l-.6-1-.7-1.1 3.1-6.4 3-6.5 3.3-2 3.3-2h7.2l2.4 2.2 2.5 2.3 3.2 4.7 3.2 4.7 2.9 2 2.9 2.1h1.2v-2.7l-2.4-1.1-2.4-1.1-4.2-6-4.1-6.1-2.2-1.5-2.3-1.5-3-.4-2.9-.5-1.5.6zm-15.6 21.6 3 2.4-2.5 1.6-2.4 1.5-5.7.7-5.8.6v-2.2l1.5-2.9 1.5-2.9 2.7-1.4 2.7-1.4 1 .8 1.1.9 2.9 2.3zm-57.6 3.1 2.7 1.4 2 2.2 1.9 2.1-1.4.9-1.5.9h-5.1l-5.2-.1-2.3.7-2.4.7-3.3 1.5-3.4 1.5-4 4-4 4-1.5 3.6-1.6 3.7-.6 5-.6 5-2.4-4.8-2.4-4.9 1.2-3.8 1.2-3.9 2.3-2.8 2.4-2.9 5.7-2.9 5.7-3 1.9-3.7 1.9-3.7 1.7-1 1.8-1 3.3-.1h3.3l2.7 1.4zm13.2 8.5v1l-.9.5-.9.6-1.6-.6-1.6-.6V115h5v.9zm132.6 13.7 3.1 1.7 1.4-.7 1.4-.7 2.5-1.4 2.5-1.5h7l3.3 2 3.3 2 1.5 3.5 1.4 3.4v5.3l-2.7-.5-2.8-.6-8.6-3-8.6-3.1-6.9-.6-6.9-.6-5.7 1.5-5.8 1.5v-5.5l1.8-1.6 1.7-1.6 2.5-1 2.5-1.1 4.5.4 4.6.5 3 1.7zm45.3 6.6 6.5 3.1 4.6 4.3 4.6 4.3 2.4 4.8 2.4 4.8v5l.1 5-1.8 3.5-1.7 3.5-4.1 4.5-4 4.5.4-2.9.5-3-1.4-5.4-1.4-5.4-3-4.4-3.1-4.3-3.4-2.6-3.4-2.7-4.4-4.4-4.5-4.5v-6.7l-.7-3-.6-3 4.8 1 4.8 1 6.4 3zm-15.6 11.9 2.7 1.2 2.4 5.1 2.4 5.1.6 6.5.5 6.5-1.9-5-2-5-3-3.7-3-3.6-5.2-2.6-5.2-2.6H454v-1.8l2.8-1.1 2.7-1.1 4.5.5 4.6.4 2.7 1.2zm42 29.8 3.6 4 1.7 3.2 1.6 3.2.5 5.7.6 5.7-1.2.7-1.1.7-2-1.1-1.9-1-3.8-.3-3.8-.2-2.7.8-2.8.7v-5.2l-2.1-3.8-2.1-3.8 5.3-6.5 5.4-6.5.6-.1.7-.1 3.5 3.9zm5 24.8 4.7 1.7v1.5l-3.9 1.2-4 1.2-4.5-1.2-4.5-1.1-2.6 1-2.6 1h-.9v-2.1l2.5-2.4 2.4-2.5h8.6l4.8 1.7z"/><path d="m262 116.9-1 2-6.1 4.2-6.1 4.3-1.4 2.7-1.4 2.8v6.2l1.6 3 1.5 3.1-.6 1.6-.6 1.6-2.6-2.6-2.6-2.6-.5-5.1-.5-5.1h-1.5l-.7 3-.7 3 2.2 4.5 2.2 4.5 1.9 1.1 1.9 1v3.8l-3.7-.6-3.8-.6-2-1.3-2-1.3-3.5-.6-3.6-.6-3.9 1.4-4 1.4-1.5.7-1.5.6-1.4-.9-1.5-1 3-4.2 2.9-4.3 4.3-3 4.2-3v-1.5l-1.1-.6-1-.7-4.1 2.8-4 2.8-3.9 5-3.8 5-5.4.2-5.4.2-2.9 1.5-2.9 1.5-2.6 3-2.7 2.9-5.8.8-5.9.7-5 1.9-4.9 1.9-.9-.9-.9-.9-.5-4-.5-4.1 2.2-4.6 2.3-4.6-1.2-1.2-1.1-1.1-1.5 2-1.5 1.9-1.5 4.9-1.5 5v3.2l-4.4 1.3-4.5 1.3-1.5 1.1-1.6 1.2.8 1.3.8 1.2 3.7-1.5 3.6-1.5h4.9l.4 1.2.4 1.2-2.9 4.8-3 4.9v8.4l2.1 4.7 2.2 4.7v5.3l-1.6 6.2-1.6 6.1.7 5.7.6 5.8h-3.9l-.7-3.3-.7-3.2-1.4-3.4-1.4-3.3-1.4 1.1-1.5 1.2 1.5 4.1 1.4 4.1v3.8l-4.7 4.6-4.7 4.7 2.5.6 2.4.6v1.9l-2.5 5.7-2.5 5.6-4.8-.5-4.8-.6-2.4 2.3-2.5 2.4-1.2 4-1.2 4.1-1.9 3.2-1.9 3.3h-1.6l-4.6 3.4-4.5 3.5-1.7-4.4-1.6-4.4.6-2.7.7-2.8 2-2.7 1.9-2.8 5.4-1.5 5.4-1.6 3.1-3.9 3.1-3.9V240h-1.8l-2.1 3.3-2 3.3-2.3 1.1-2.3 1.2-3.6 1.1-3.6 1.1-2 2.2-2.1 2.2-1.1 2.2-1.1 2.2v7.6l1.8 3.5 1.9 3.4-2.9 5.4-2.8 5.4v6.3l1.9 4 1.8 4.1 3.2 2.7 3.3 2.7 2.4.6 2.4.6v10.9l1-.6 1-.6V307h3.3l3.5 4 3.4 4.1 3.6 1.5 3.6 1.5 4.9.2 4.8.1-.6 3.6-.6 3.5-1.6 1.2-1.5 1.2.6 1 .6 1 2.8-1.5 2.7-1.4h6.5v2.8l-2.4 1.5-2.4 1.6-1.7 4.5-1.8 4.6.5 4.2.5 4.3 3.4 7 3.4 7 2.3 1 2.2 1v2.5h-10.1l.6 1.1.7 1 4.7-.2 4.8-.3 2.3 2.2 2.4 2.2h4.9l3.3 2.5 3.3 2.5h2.1v2.9l-3 1.8-3 1.7v1.6h1.6l2.3-1.6 2.3-1.6 2.5 1.1 2.6 1.2.5-.6.6-.5-2.2-1.6-2.2-1.5.5-1 .6-.9h4.1l3-3.1 3.1-3 .8 1.3.9 1.3.1 1.5.1 1.5-.1 1.8-.2 1.7h2l.6-2 .7-2.1-2.7-5.2-2.8-5.2 1.3-4.8 1.2-4.8-.5-.5-.5-.5-1.8 4.6-1.9 4.5-4.3 1.6-4.2 1.7-4.5-.6-4.5-.7-2.5-1.6-2.5-1.6v-1.9l1.8.6 1.9.5 7 .2 6.9.1 2.8-1.8 2.7-1.8 1.5-2.9 1.5-2.9-.7-1-.6-1-1.6 3.3-1.7 3.3-3.6 1.9-3.7 2-4.3-1.4-4.4-1.4 5.6-.6 5.7-.5 2.2-2 2.2-2 1.4-2.8 1.5-2.8-.7-1-.6-1.1-1.8 3.9-1.7 3.8-2.6 1.4-2.7 1.4-.5-.5-.6-.5 2.2-3.7 2.1-3.7.2-5.2.1-5.2 1.5-.6 1.5-.7-5-2.2-5-2.2-4.1-.5-4.2-.5-4.6 4.2-4.6 4.3v-1.7l2-4.1 2-4 2.9-1.8 2.9-1.7h5.8l4.7 3 4.7 3v-1.7l-1.8-1.6-1.8-1.6-3.8-1.6-3.9-1.6-2.3.5-2.4.6v-2.7l1.8-1.6 1.9-1.7h4.7l2.8 2.7 2.8 2.7v-3.3l-2.6-2-2.7-2.1h-5.3l-2.2 1.6-2.3 1.6-.9 2.4-1 2.4h-8v-4.5l2-3.2 1.9-3.2 2.6-1.7 2.5-1.7 4.2.6 4.1.6 2.9 2.1 2.8 2.1V317l-4-2-3.9-2h-6.6l-3.2 2-3.2 1.9-2.1 4.1-2 4h-8v-2.1l1.4-3.4 1.4-3.3 2.4-1.5 2.3-1.5 5.3-.5 5.3-.6 5.7-3.6 5.7-3.5h2.2l-.4-2.4-.5-2.3-4 1.2-4 1.1-1.3 3.1-1.3 3-1.7.7-1.7.6h-5.5l-2.3-2.5-2.3-2.4 2.7-1.1 2.7-1h2.4l4.1-1.9 4.2-1.9 4.1-3.7 4.1-3.7-.1-3.7-.1-3.6-.5 1.5-.5 1.5-.4 1.5-.5 1.5.1.3.1.3-3 2.4-2.9 2.5h-1l.8-3.3.9-3.2 1.2-7.1 1.2-7-2.1-4.6-2-4.5-3.6-2.8-3.6-2.8h-8.5l-6.2.8-6.3.8v-2.9l1.5-2.1 1.5-2.1 4.5-1.7 4.5-1.8 4.5 1.3 4.6 1.3 4.3 2.8 4.3 2.9 2.8 3.9 2.7 4 1.3 4.8 1.3 4.8.1-4.6.1-4.5-2.9-4.6-2.9-4.5-3.3-2.5-3.4-2.5-2.5-1.4-2.5-1.3-5.5-1.1-5.5-1.2 4.9-2.3 4.9-2.2 3.9 1.3 3.9 1.2 3.2 3.6 3.2 3.6 2.4 4.8 2.4 4.8 1-1 .9-.9-2.6-5-2.6-5.1-3.6-3.5-3.7-3.6-3.9-1-3.8-1.1-3.7.7-3.7.7-4.3 4-4.4 4-1.1-1.1-1.1-1.1 1.3-4.2 1.4-4.2 2.7-3.7 2.8-3.8 3.5-1.2 3.6-1.2 3.5 1.2 3.4 1.1 5.1 6.9 5 6.9 2.9 1.6 3 1.5h2l.7-4.5.6-4.5h1.8v-3h-3.8l-1.2-1.5-1.2-1.4-5.1-3-5.2-3-4-3.6-4-3.6v-15.4l1.4-6.2 1.5-6.3-2.3-5.2-2.4-5.3-.4-3.1-.5-3.1 1.6-3.1 1.6-3.1 2.3-2.2 2.2-2.1 2.5-1.3 2.5-1.3 6.8-1.5 6.9-1.5-.7 3.6-.7 3.6-4.5 5-4.6 5.1-2.5 5.3-2.4 5.3-1.1 6.4-1.1 6.5 1.3 6.2 1.2 6.3 2.3 5 2.3 5 4.3 4.8 4.2 4.7 1.9 1.1 1.9 1 .5-1.3.5-1.4-5.3-5.5-5.4-5.6-2.4-5.9-2.3-5.9V202l-.1-9.5 2.7-5.7 2.6-5.7 4.4-4.7 4.3-4.7 3.6-2.3 3.6-2.2 3.9-1.2 3.9-1.1 5 .3 5 .3-3.3 1.8-3.3 1.8-5.3 4.7-5.4 4.7-4 3.2-4 3.2-2.6 5.3-2.6 5.2v11.4l2.8 5.2 2.7 5.3 3.2 2.4 3.3 2.5.6-1.7.7-1.8-2.7-2-2.7-1.9-2.1-4.2-2.1-4.1-.1-5.5-.1-5.5 2.8-4.7 2.7-4.7 3.3-2.5 3.2-2.4 5.3-1.7 5.3-1.8.5.6.6.6-2.9 1.4-2.8 1.5-3.7 3.8-3.8 3.7-2 4.2-2 4.1v10.1l1.1 3.4 1.2 3.4 1 1.3 1 1.3 1-1.6.9-1.6-1-2.7-1-2.7-.6-2.7-.6-2.8 1-4.2 1.1-4.3 1.8-2.3 1.7-2.4 1.3 5.6 1.2 5.6.8.5.8.4 2.7-3.7 2.6-3.7-2.5-.3-2.5-.3v-1.8l2.6-2 2.7-2.1h4.3l1.2-1.2 1.2-1.2v-1.9l-4.7.7-4.7.6 1.1-1.1 1.1-1.1 4.9-.5 4.8-.6 6.9-6.8 6.8-6.8-.6-1-.7-1-7.2-2.2-7.2-2.2-9.5-.1h-9.5l-4.2 2.1-4.3 2.1v-2.4l2.5-3.5 2.5-3.4 3.3-1.8 3.2-1.7h6.9l4.4 2.1 4.4 2.2 3.8-2.2 3.8-2.1h8.4l4 4 4 4 .9-.6.9-.5v-3l1 .6.9.6 2.1-1.3 2-1.3v-5.3l.6-1.6.6-1.6 2.8 2 2.9 2 .7-1.2.8-1.2-1.3-.4-1.2-.4-2.9-2.4-2.9-2.5-1.1-3.4-1.2-3.5 1.1-3.3 1.2-3.2 3.5-2.5 3.5-2.5 2.4-1.8 2.4-1.8 2.1-2.9 2.1-3h-3l-1.1 1.9zm-35.1 52 1.4.9-3.4 1.8-3.4 1.8-7.3.6-7.2.5v-1.4l3.2-1.7 3.3-1.7 2.5-.8 2.5-.7 3.5-.1 3.5-.1 1.4.9zm-62.6 58.3 2.2 1.1 4.4 3.9 4.4 3.8h2.4l2.7 2.5 2.6 2.4v7.1h-.7l-.8-.1-2-1.7-2.1-1.7-4-5.5-4.1-5.5-1.6-1.3-1.5-1.3-3.6-.6-3.6-.6-4.6 1.8-4.6 1.7-.9-.9-1-1 3.1-2.7 3.2-2.6h7.9l2.2 1.2zm-23.2 23.9 2.9 2v1.8l-2.2 1.3-2.3 1.2-5.2.6-5.3.6v-4.3l2.5-2.7 2.4-2.6h4.3l2.9 2.1zm-7.9 18.7-6.9 6.7-1.3 3.9-1.2 3.8.5 3.4.6 3.4h-1.6l-2.6-2-2.5-2-.6-2.5-.6-2.5 1.4-2.8 1.4-2.7 2.6-2.4 2.6-2.4v-6.5l1.8-2.1 1.7-2.1 5.5-.8 5.5-.8.3 1.8.3 1.8-6.9 6.8zm31.9-5.3 3 1.6 1.9 3.2 2 3.2v8.6l-1.5 2.9-1.6 3h-.4v-13.5l-1.9-2.8-1.9-2.9-3.6-2.4-3.6-2.4h4.6l3 1.5zm-7.6 1.5 2 .8 2.8 2.9 2.7 3 .9 3.1 1 3.2h-1.3l-2.5-2.4-2.6-2.4-4.8-1.6-4.8-1.6h-9.6l.5-2.9.4-3 2.2-.4 2.1-.4 4.5.5 4.5.5 2 .7zm-21 9.8-3.5 8v7l4.6 5.6 4.5 5.6h-3.2l-3.7-1.9-3.7-1.9-2.3-4-2.2-4v-8.7l2.1-3.5 2-3.5 4.2-3.7 4.2-3.6.3.3.3.2-3.6 8.1zm-13.5-6.9v1l-4 4.6-4 4.6v6.1l1.7 2.9 1.7 2.9 2.8 1.3 2.8 1.2V304h-5.2l-3.5-1.7-3.5-1.6-2.5-3.8-2.5-3.9.4-5.3.4-5.3 3.3-4.7 3.2-4.7 3.7-2.5 3.7-2.5h1.5v.9zm26 5.2v1l-1.1 2.1-1.1 2-.7 4.7-.7 4.6-1.7-3.3-1.8-3.3.7-3.7.7-3.7.4-.8.4-.7h4.9v1.1zm6 .4v.5l-2 3.7-2 3.8v4l1.5 2.9 1.5 2.9-.3.4-.4.3-1.6-.6-1.6-.6-1.1-3.3-1.1-3.4 1-3.7 1-3.6 1.7-1.9 1.7-1.9h1.7v.5zm-9.5 16.1 5 4.4h5.6l-.6 1-.6 1h-7.2l-4.2-2.5-4.2-2.4-1.7-2.5-1.6-2.5v-5l1.8-3.7 1.7-3.7.5 5.8.5 5.7 5 4.4zm14-13.5.7 1-1.5 1.7-1.5 1.7-.7 2.6-.6 2.5 1.5 1.3 1.5 1.3 2.3-.8 2.3-.7-1.4 1.7-1.3 1.6h-3.1l-1.9-1.7-1.8-1.6v-5.8l1.5-2.9 1.6-3h1.8l.6 1.1zm1.6 8.3-2.1 2v-4l1.8-2.4 1.7-2.5.3 2.4.4 2.4-2.1 2.1zm8.4 7.6-.7 2.1-2.6 2.4-2.7 2.5H162l1.1-2.8 1-2.7 2.7-2.2 2.7-2.1.3.3.4.3-.7 2.2zm-38.9 7 3.4 2.9 3.7 1 3.8.9 6.2.7 6.2.7 1.5 2.3 1.5 2.2-4.1 2.7-4 2.6h-9.4l-4.4-2.3-4.5-2.2-1.6-3-1.7-3-.7-4.3-.7-4.2h1.4l3.4 3zm19.5-1.2 4.7.4 2.2-1.2 2.2-1.2.6.7.7.7-3.4 3-3.4 3-2.9-.6-3-.6-2.8-2.2-2.9-2.3v-.9l-.1-.8 1.8.8 1.7.8 4.6.4zm14.9 31.9v.7l-1.9 2-1.8 2.1-1.2 3.4-1.1 3.4v9.4l-2.4 2.2-2.3 2.2-1.7-4.1-1.6-4v-7.5l1.8-3.5 1.7-3.5 3.5-1.7 3.5-1.8h3.5v.7zm15.4 8.3 1 1h-6.1l-2.6 2-2.5 2-2.1 4.2-2.1 4.3v-6.6l1.1-2.2 1.1-2.2 2.2-2.3 2.1-2.4 3.4.6 3.4.5 1.1 1.1zm3.4 5.9.4 2.4-1.9-.8-1.8-.8-3.8-.5-3.8-.4 1.2-1.5 1.2-1.4 4.1.3 4.1.3.3 2.4zm-19.5 1.5-.5 3.5 1 3 1.1 3.1h-1.2l-1.9-1.7-1.8-1.6V347l1.2-2 1.3-2h1.4l-.6 3.4zm16.5 1.7 2.2.9v2.2l-1.7-.7-1.8-.8-3.3-.5-3.3-.4-1.9 1.7-2 1.8v-1.9l1.3-1.6 1.2-1.6 1.5-.5 1.5-.5 2 .5 2 .6 2.3.8zm-.2 4.3 1.9 1.4-.6.6-.6.6-3.2-1.1-3.1-1.1-1.6.6-1.5.6.6 2.1.7 2.2-1.1-.7-1.1-.7v-3.5l1.2-1.2 1.2-1.2h5.2l2 1.4zm-12.9 15.8 2.7 2.8h2.6v2h-6.9l-1.5-2.2-1.6-2.2v-3.2l-3-1.1-2.9-1.1-.7-2.6-.6-2.6 1.7-2.7 1.8-2.6 2.9 6.4 2.9 6.4 2.6 2.7zm11.1-11.5.4 1.3h-1.8l-2-1.5-1.9-1.6 2.4.3 2.4.3.5 1.2zm-10.4 3.4 2.6 2v2l-3-1.7-2.9-1.8-.5-1.3-.5-1.3h1.6l2.7 2.1zm22.9 10.5.6.6-1 2.6-1 2.5-1.7 1.3-1.7 1.3-3.3.1h-3.3l-2.4-1.6-2.5-1.6V373h4.3l4.2-.1 3-1.4 3-1.3.6-.1.6-.1.6.6zM287.5 130l-4 2-1.8 2.6-1.9 2.5.6.7.6.6 3.3-3.2 3.3-3.2 3.3-1 3.3-.9-.6 1.4-.5 1.5h1.4l4-1.4 4-1.4-2.8-1.1-2.8-1.1h-5.4l-4 2z"/><path d="m324 131.5-8.5 1.2-9 2.3-9 2.2-3.5 1.7-3.5 1.6-1.2 2.5-1.1 2.5-.4 2.4-.3 2.4 1.2.4 1.2.4 1.5-3.5 1.5-3.6h6.7l1.5 1.8 1.5 1.8 10 1.3 9.9 1.4 3.7 3.8 3.6 3.8 1.2 3.7 1.2 3.6-.9.7-.8.6-1.3 2.9-1.3 2.9-5.1-.6-5.1-.6 1.1 1.1 1.2 1.2v3.4l1.4 1.1 1.3 1.1 1.3-1.5 1.2-1.5h4.6l.6 1.6.6 1.6v4.9l4.9 4.9 5 5-1 .5-.9.6v3.6l2.5 2.3 2.5 2.3v1.7h-11.9l.6-3 .6-3h-14.8l-1.5 1-1.5 1h8.5l-.6 2.5-.6 2.5h8.2v1.5l-2.2 1.4-2.3 1.5-4.9 2.4-4.9 2.3-.8-1.2-.7-1.3-4.2 3-4.2 2.9-3.9 2.3-4 2.4-1.6 2.4-1.5 2.4H293v6l-6 3-6 3-1.6 2.5-1.6 2.5.5 3.2.5 3.3-1 4.3-1.1 4.3-1.6-.3-1.6-.4.3-4.8.2-4.9-1.1-1.3-1.1-1.4h-5.1l-1.7-1.5-1.6-1.4-7.7-.5-7.8-.5-2.3 1-2.3 1.1-2.3 4-2.2 4-.5 6.2-.5 6.2 1.6 3.1 1.6 3.1 3 .7 3.1.7 3.8-4.1 3.8-4.1h2.9l1.7 1.3 1.7 1.2-3.5 6.7-3.5 6.7.8.5.7.4 3.8.7 3.8.7 1.5 2.4 1.6 2.3-.7 5.5-.7 5.5 2.5 2.5 2.6 2.6 3-.6 3.1-.6 2.5 1.6 2.4 1.6h4l1.1-2.1 1.1-2 3.2-1.9 3.2-2h5.7l.5 2 .5 2h13.9l6.2 3.1 6.2 3.2 3.7 4 3.7 4.1 4.3.2 4.3.3h1.7l1.8.1 3 2.7 3.1 2.8.6 4.3.6 4.3 2.7 2.9 2.7 2.9 2.1-.5 2-.6 3.8 1.8 3.7 1.8 3.5-.2 3.5-.3 3.6 2.5 3.6 2.5 4.2-.2 4.2-.1 2.6 2.4 2.5 2.3v7.6l-5 6.6-5 6.7-1.4 3.1-1.3 3.2-.6 3.5-.7 3.5-2.4 4-2.4 4-6.8 3.5-6.8 3.5-2.2 3.5-2.2 3.5-1.9 1.8-1.8 1.8-5.9 5-5.9 4.9h-5.6l-1.3 2.7-1.3 2.7-4.5 2.3-4.5 2.4-2.5 2.5-2.5 2.5 1.9 1.4 1.9 1.5-1.8 2-1.8 2 2.3 2.5 2.3 2.4-.6 1.5-.6 1.6h-7.6l-5.3-3-5.3-3.1-1.3-3.2-1.4-3.2-1.3-9-1.3-9-.1-8-.1-8-.8-9.3-.9-9.2-1.1-1.3-1.1-1.4-4.6-1.7-4.6-1.7-2.6-4.8-2.7-4.8-5.5-4.7-5.5-4.8v-5.6l-2.5-5.6-2.5-5.7v-6l4.1-4.2 4.1-4.2 1.5-3.4 1.5-3.4-1.7-4.4-1.7-4.3-2.1-.4-2.2-.5-3.9-.5-3.9-.5-2.6-2.5-2.6-2.5-2.4-6-2.4-6-3.6-.3-3.6-.3-1.4-3-1.4-3-1.5-1.7-1.5-1.8-3.4-.6-3.4-.6-1.5-2.4-1.6-2.3-3.3-2-3.4-2-1.6-3.1-1.6-3.1.1-4.7.1-4.7-.8-9-.7-9-.7 5.8-.7 5.9-1.1 1.1-1.2 1.2-1-1.5-1-1.5.7-6.5.6-6.5.3-4.5.2-4.5 1.2-9 1.1-9 3.1-6.3 3-6.2 6.4-6.4 6.5-6.4 2.4-5.4 2.4-5.3 7.7-7.8 7.8-7.7-.6-.6-.6-.7-7.6 5.7-7.6 5.7-7 6.6-7 6.7-6.1 7.5-6.1 7.6-4.5 7-4.6 7-4.8 9.6-4.8 9.6-3.4 10.4-3.5 10.4-1.6 8-1.6 8-1 11-1 11 .6 10.5.7 10.5 1.4 8.3 1.4 8.3 1.5 6 1.6 6 2.6 7.2 2.5 7.2 5 9.9 4.9 9.9 5.9 8.6 5.9 8.6 6.6 7.7 6.6 7.7 7.7 6.6 7.7 6.6 8.6 5.9 8.6 5.9 9.9 5 10 5 10.4 3.5 10.5 3.5 7.5 1.5 7.5 1.6 12.9 1.1 12.8 1.2 13.2-1.1 13.1-1.2 7.5-1.6 7.5-1.6 9-2.9 9-3 11.2-5.4 11.2-5.5 8.3-5.6 8.3-5.6 6.5-5.6 6.5-5.6 4.8-5.1 4.8-5 5.4-6.6 5.4-6.6 2-3.4 2.1-3.4v-5.6l1.9-4.7 1.9-4.7.6-5.5.5-5.5 3-7 3-7.1.7-6.5.6-6.5-2.5-3.7-2.5-3.6-.6-3.3-.6-3.3 1.3-5.3 1.4-5.2-2.3.6-2.2.6-1.2-2.1-1.1-2.1h-2.7l-3.2 3.7-3.3 3.7H471l-3.8.1-1.9 1.8-2 1.7h-4.6l-4.6-2.7-4.6-2.7-2.7-1.6-2.7-1.5-2.5-3.5-2.5-3.5-2.6-4.2-2.6-4.3 1.1-1.9 1-2v-6.9l-3.1-6.6-3.1-6.7.5-4 .5-3.9 3.2-5.1 3.3-5-.6-4.1-.6-4.2 2-2.4 1.9-2.5v-4.3l-1.2-2.7-1.3-2.6-3 .2-2.9.2-.7-4-.7-3.9-2.1-1.4-2.1-1.4v-4.6l3.4-1.6 3.4-1.6h2.2v-2.9l-2.6-2-2.7-2.1H423v-1.8l1.4-2.7 1.5-2.8 1.3-.8 1.3-.8-.2-6.1-.2-6.1 1.5-.6 1.4-.5V169l1.8-.1h1.7l-2.2-1.6-2.3-1.5V163h-2v1.1l1 2 1.1 1.9-1.6.6-1.6.7-2.7-1.2-2.6-1.3-.4 1.1-.4 1.1h-4.1l-4.4-2.6-4.4-2.5.7-2.1.6-2-3.3-4.1-3.3-4.2-1.8-1.3-1.8-1.3v-3.5l1.2-1.2 1.2-1.2h6l-1-.8-.9-.9-5.5-2.1-5.5-2.1-5.5-1.5-5.5-1.6-12-2-12-2-13.5.1-13.5.2-8.5 1.2zm35.9 7.7.3 1 2.5 2.2 2.5 2.1 2 4 2 4 2 1.8 1.9 1.9-1.2 1.4-1.1 1.4h-4.7l-1.3 2.7-1.3 2.8-2.3 1-2.2 1v8.5l-2.1 2.1-2.1 2.1-2.6-.6-2.7-.6-3.9-4.3-3.9-4.2-1.4-2.2-1.4-2.2 1-2 1.1-2V154l-3.2-2-3.3-2H331v-3.7l1.8-1.5 1.7-1.6 3.5-1.8 3.5-1.8 5-1.2 5-1.3 4 .5 4 .5.4 1.1zm-25.1 1.5.4 1.3-3.3 1.7-3.2 1.8-2 1.8-1.9 1.9-6.6-1.2-6.7-1.1-2.1-.5-2.2-.4-.6-1.6-.6-1.7.3-.4.4-.3 7.9-.5 7.9-.5 3-.9 3-1 2.9.2 2.9.2.5 1.2zm52.2 21.1v1.8l-1.2 1.2-1.2 1.2h-8.3l-1.9-2.1-1.8-2 1.4-.9 1.5-1H387v1.8zm28.2 10.3 1.6 1.9.4.8.3.7 4.8 2.2 4.7 2.3v2.9l-1.6 1.5-1.5 1.6h-3.7l-1.3-1.6-1.2-1.5-.9 1.5-.9 1.6h-5.8l-.7-3.4-.6-3.5.7-1 .6-1.1-1.5-.6-1.6-.6v-5.5l.6-.6.7-.7 2.6.6 2.6.6 1.7 1.9zm-135.6 95.5 4.9 2.6 2.7 1.5 2.8 1.4.4.8.5.8-2.5 1.2-2.6 1.2-3.4-.7-3.4-.6v-1.7l-2.7-2.5-2.7-2.5-3.1-.7-3-.6-.8-.5-.7-.4.5-1 .6-.9h7.6l4.9 2.6zm20.6 9.9 2.8.7v2.6l-4.5 1.1-4.5 1.1-2.4-.6-2.5-.6-.6-1.6-.6-1.5 1-.7 1.1-.6 3.6-.2 3.7-.3 2.9.6zm-16.4 2.7-.5 1.3-2.1.3-2.2.3V279h5.2l-.4 1.2zm30.2 1.2v1.4l-1.9.5-1.9.5-1.2-.8-1.3-.8.7-1.1.7-1.1h4.9v1.4z"/><path d="m308.8 167.2-.3 2.3-3.5-.3-3.5-.4-.8-.8-.9-.8-6.1 2.4-6.2 2.4-1.3 1.4-1.4 1.4 1.1 2.1 1.2 2.1h5.1l.5 1.9.5 1.9 2.4.6 2.4.6v1.9l-1 .6-1 .6v5.9h.8l1.6-.6 1.5-.6.7-3.4.6-3.4h4.7l1.2-4.3 1.1-4.2.7-2.5.8-2.5 4.3-.5 4.4-.5-4.2-2.8-4.2-2.7h-.9l-.3 2.2zM475 197.5v1.5h-2.3l-1.3 1.7-1.3 1.8-2.1-1.3-2.1-1.2.7 2.5.6 2.5-1.2 1.5-1.2 1.5H461v-6.9l-2.2-1.5-2.2-1.6H454l1.7 3.5 1.6 3.4-1.3 1.5-1.2 1.6-1-.6-1-.6-2.3-4.9-2.2-4.9-1.3 1.5-1.3 1.6.6 8.3.6 8.4-2.2 1.6-2.2 1.5h2.5l2.6.1 3.7-4.5 3.8-4.5h7.8l2 2.9 2 2.8 5.3.6 5.2.7.5-.5.4-.5-1.7-1.9-1.8-2 .7-1 .6-1.1h6.9v-5.3l-3.1-4.9-3.1-4.8H475v1.5zm64.4 12.7-.9 1.3-4.7 3.2-4.7 3.2-1.6-2.5-1.5-2.4h-7.9l-3.3 2.9-3.3 2.8-2.2 1.2-2.2 1.1H498v2l4-.6 4-.7v2.5l-3 1.1-3 1.1v1.6l2.8-.6 2.7-.6 3.2-3.4 3.2-3.5 3.8 1.7 3.8 1.6 1.3.5 1.2.5v1.6l-1.2.9-1.3 1-4.8.7-4.9.6-3.4 1.6-3.4 1.6v2.7l3.3-1.8 3.2-1.9 4.3-.7 4.2-.7v1.1l-5.9 4.1-6 4-.6 1-.6 1 1.7 6.2 1.6 6.3 3 2.8 3 2.8-.7.7-.7.7h-2.1l-.5 1.4-.5 1.4 2.4-.8 2.4-.8 4.7-.1 4.6-.1.7.7.7.7-2.1 2.7-2.1 2.7-1 3.7-1 3.8-3.5.6-3.5.7v3.1l1.8-.7 1.7-.7 7.1-.5 7.1-.5 1.9 1 1.9 1.1-1.5.5-1.5.5-4.9.6-4.9.7-3 2.9-3 3 .6 6.3.6 6.2-2 1.7-1.9 1.7v3.3l2.5-2.3 2.5-2.3v7.9l1.8 3.6 1.9 3.6 4.5 5.4 4.5 5.3.1 4.2.1 4.2-2.7-1-2.7-1-4.3-2.5-4.4-2.6-2.8-4.4-2.8-4.4-.6 1.6-.6 1.7 2.6 3.4 2.6 3.4 3.8 2.8 3.7 2.7 4.4 1.3 4.4 1.3 3.8 2 3.8 2 2.2-.5 2.2-.5 2.3-.7 2.2-.7v3l-4.4 3.9-4.5 3.9-3.9 1.2-3.9 1.2h-2.4l-2.4-.1-1.6-1.2-1.6-1.2-2.7-5.2-2.6-5.2-1.7-1-1.8-.9-3.8-1-3.8-1.1.3 1.7.3 1.7-1.8 2.5-1.7 2.4v2l2.8-2.6 2.7-2.5 2.1-.5 2.2-.6.8.7.9.6 1.5 1.9 1.5 1.9-2.3-.5-2.3-.6-5.1 1.7-5.2 1.8-.4 1.2-.4 1.3 2.2-.7 2.3-.7-2.1 2.7-2.2 2.8v7.2l-1.9-2.4-1.8-2.3-1.6 4.1-1.7 4.1v4h-3v.9l1.6 3.5 1.7 3.4-.7 2.3-.6 2.4-.9 1.4-.9 1.4-2.5-2.9-2.5-2.9-.8.8-.8.8 1 .7 1 .7 1.7 2.5 1.7 2.4v7.3l-1.7 1.6-1.8 1.5-5.7 1.7-5.6 1.6-1.2 1.4-1.1 1.3 1.1.7 1 .6v-2l7-2.1 6.9-2.1 1.6-2.2 1.5-2.1V386h1.9l.6 1.1.7 1v6.9h.9l1.5-1.5 1.5-1.5h3.8l1.5 2.2 1.6 2.2.7-.7.7-.7-1.2-1.2-1.2-1.2v-2.7l3.3.6 3.2.6 3.5-2.3 3.5-2.2 6-1.3 6-1.2 3.3-3.6 3.2-3.5v-6.4l-1.2-3.3-1.2-3.2.7-.8.7-.7 3.5 3.4 3.5 3.4 1 3.2 1.1 3.3-1.3 2.8-1.3 2.8-6.3 2.1-6.2 2.2-1.5 1.2-1.5 1.3.5.5.5.5 1.2-1.1 1.3-1 5.9-1.7 5.8-1.7 1.9-1.9 1.9-1.9.1-1.8.1-1.7.2-3.7.3-3.7-.6.2-.6.2-3.6-4-3.6-4 1.6-1.7 1.7-1.7 1.4.9 1.5 1h2.5v-3h-3.8l-2.3-2-2.4-2 1.9-1.1 1.8-1.1 3.4-3.6 3.4-3.6 4-.1 4-.1 2.2-2.1 2.3-2.1 5.5-1 5.5-1.1 1.7-.6 1.7-.7.7 2.6.6 2.6-1.9 3.9-2 4 1.3.5 1.2.5 1.6-3.4 1.6-3.3v-4l2.8-.5 2.7-.6 1.5-1 1.4-1-.6-.6-.6-.6-3.6.9-3.6 1-.5-.8-.5-.9 2.6-3.8 2.6-3.8-.7-4-.8-4 .1-4 .1-4 .6-7.7.7-7.7-2.3-4-2.3-4.1-4.3-2.1-4.3-2.1-4.7.4-4.7.3-.4-1.8-.4-1.7 5.8-2.7 5.8-2.6 3.4-.2 3.4-.2 2.9 1.4 2.9 1.5 1.6 3 1.6 3.1-.7 8.7-.7 8.8.7 2.1.6 2.1 1-.6 1-.6-.6-3.2-.7-3.2 1.2-6.3 1.1-6.2-1.1-3.5-1.2-3.4-3.1-2.4-3.2-2.3-2.7-.7-2.8-.6v-2h-3v3h-3.7l-4.9 2.1-4.8 2.2-.5-1.4-.4-1.3-2.3-2.3-2.3-2.3h-7.8l-3.8 2.6-3.8 2.6-3.6.1-3.6.1-5.2-.2-5.3-.2v-4.1l1.4-2.8 1.5-2.8 2.5-1.7 2.5-1.6h8.2l2.7 1.4 2.7 1.4 3 .3 3 .2 6.2-.7 6.2-.8-1-2.2-1-2.2-2.2-.9-2.2-1 .3-2.7.3-2.8-1.8-3.2-1.7-3.3-.1-7.5-.1-7.5-1.7-3.3-1.8-3.3-3.2-2-3.2-2-5.9.3-5.9.3-.4-1.1-.4-1.2 5.1-3.1 5-3.1h8.1l2.3 2.3 2.4 2.4.7 7.4.7 7.4 1 1.8.9 1.8 1-.6.9-.6-1-1.9-1-1.9v-7.2l-1.1-4.6-1.2-4.5-3.1-1.9-3.1-1.9h-5.1l-1.1-1.1-1.1-1.1-.8 1.4zm-12.9 7.8 1.5 2.9v2.1h-4l-4.5-2.1-4.6-2.2 1.7-1.8 1.7-1.9h6.6l1.6 3zm20.2 8.5 2.2 2.5 1.1 4.1 1.1 4.1-.6 3.8-.6 3.8 2 4.5 2.1 4.6v2.1h-1.9l-2.3-1.1-2.3-1v-16.4l-2.7-4.7-2.8-4.7-2.5-1.9-2.5-2v-1.5l3.8.6 3.7.6 2.2 2.6zm-9 1.1 3.3 2.5 1.9 3.8 1.9 3.7.7 3.7.7 3.7-.6 3.5-.7 3.5h-3.6l.1-5.9.1-5.9-2.1-2.9-2.1-2.8-2.4-1.2-2.4-1.2-3.9-1.9-4-1.8-.3-1.1-.4-1 2.3-1.1 2.3-1.1 2.9.4 2.9.5 3.4 2.6zm-5.9 9.4 2.2 3.3v8.6l-.9.5-.9.6-.7-3.1-.7-3.1-4.1-4.1-4.2-4.2-2-1.1-2-1.1 1.9-2.1 1.8-2.1 3.7 2.3 3.6 2.3 2.3 3.3zm4.5-.2 1.6 1.7 1.1 2.9 1.1 2.9-.6 2.9-.7 2.8-1.7.9-1.7 1 .4-6 .4-5.9-1.6-2.5-1.6-2.5h1.7l1.6 1.8zm-21.3-.4v.5l-2.1 3.5-2.1 3.6 1.7 5 1.7 5 2.1 1.5 2.1 1.5-.7.6-.6.6-3.1-2.2-3-2.2-1.5-2.8-1.5-2.9v-7.9l2.8-2.1 2.7-2 .8-.1h.7v.4zm6.1.6 1.9 1.1v1.9h-2.8l-3.1 3.5-3.1 3.6v-5.3l2.1-2.9 2-2.9h1l2 1zm4.9 4.9v1l-2 .6-1.9.6-2.1 2.6-2 2.6v4.8l-1-.6-1-.6v-5.7l3.5-3.1 3.6-3.1h2.9v.9zm3 3.9v.7l-3 1.3-2.9 1.3-.7 2.1-.6 2 1.3.9 1.4.9 1.3-.5 1.2-.4v1.9h-5l-1.2-2.5-1.1-2.4 1.7-2.6 1.7-2.6 2.2-.8 2.2-.9.8.5.7.4v.7zm-.5 5.2-1.8 2H524v-1.9l1.8-1 1.7-1 1.4-.1h1.4l-1.8 2zm21.3 6.7 6.2 3.7v1.4l-2.2.6-2.3.6h-5.6l-4.6-2.1-4.7-2.1-4.3.6-4.3.6v-1.2l3.1-2.9 3.1-2.9h9.3l6.3 3.7zM556 275l2 2v3.8l.6 1.6.6 1.6h-4.7l-5.2-3.6-5.3-3.6v-1.6l2.8-1 2.7-1 2.3-.1 2.2-.1 2 2zm-9.9 6.1 4.4 3.2.4.3.4.4-1.3 1.5-1.2 1.5h-17.9l-3.8 1.9-3.8 2-1.7 2.5-1.6 2.6h-2l-.6-2.5-.6-2.5 1.2-3.1 1.3-3 1.8-.9 1.8-1h7.2l2.8-1.4 2.7-1.5 1.3-1.5 1.3-1.6h3.5l4.4 3.1zM564 288l4 2 2.9 5.2 3 5.2.7 5.2.6 5.2-1.6 5.4-1.5 5.4-3.8 4.3-3.7 4.4-4 1.8-4.1 1.9H550v-1.5l2.4-1.5 2.4-1.5 5.6-4.3 5.6-4.2 1.3-2.8 1.4-2.7.7-2.8.7-2.8-1.1-3.8-1-3.8-2.2-2.8-2.1-2.7-2.7-1.2-2.6-1.1-3.2-2.7-3.2-2.7v-1.2l2.3-.9 2.2-.9h1.8l1.8-.1 3.9 2zm10.9.4 2.4 1.1 1.9 2.6 1.9 2.6.6 4.2.6 4.2-1.8 6.4-1.7 6.5 1.1 3.1 1.1 3.2v6.3l-2.1 2.3-2.2 2.3-3.3 1.4-3.3 1.4h-5.2l.6-2.3.7-2.2 3.4-3.5 3.3-3.5 2-4.5 2.1-4.5v-12.2l-1.5-4.4-1.6-4.4-2.9-3.7-3-3.7v-1.2l2.3.6 2.2.7 2.4 1.2zm-29.9 2.4v.9l-7 2.7-7 2.8-2.9 2.7-2.9 2.7-.7 7.4-.7 7.4-1.4-1.9-1.4-1.9-1-3.5-1-3.5 1.1-3.8 1-3.8 3-3.5 3.1-3.5 3.2-.9 3.1-.9 5.8-.1 5.7-.1v.8zm8.1 2.3 2.9 2 2.5 4.3 2.5 4.3v8.2l-1.2 2.6-1.1 2.5H557v-6.5l-2.1-4-2.1-4-4-4.1-4-4.2 2.3-1.6 2.3-1.6h.8l2.9 2.1zm-15.6 7-3.8 4.2.6 6.5.7 6.5 2.7 2.9 2.7 2.8h-2.3l-3.4-3-3.4-3-1.3-4.6-1.3-4.6.9-3.6.9-3.6 4.5-2.3 4.5-2.2.9-.1h.8l-3.7 4.1zm9.8-.3 1.6 1.8-3.7 1.9-3.7 1.9-2.7 2.5-2.8 2.5v-3.5l1.1-2.2 1.1-2.2 2.6-2.2 2.7-2.3h2.2l1.6 1.8zm18.3 3.8 1.4 3.3v6.6l-1.9 3.5-1.8 3.5-2.9 1.6-2.9 1.7-2.4.7-2.4.7 4.6-4.3 4.5-4.4 1.1-4.3 1.2-4.2-1.1-3.8-1-3.7v-1.6l1.1.7 1.1.6 1.4 3.4zM552 306v.8l-2.9.7-2.9.6-2.6 2.4-2.6 2.4-.6 3.1-.6 3-.9-.6-.9-.5v-6.6l2.4-2.2 2.4-2.3 3.9-1.3 3.8-1.3.7.5.8.4v.9zm2 4.4v1.4l-2.7.7-2.8.7-1.7 1.5-1.8 1.6v3l1.8 1.3 1.7 1.3-1.5.1h-1.6l-1.2-1.2-1.2-1.2v-5.3l2.3-2 2.2-2 1.5-.6 1.5-.5 1.8-.1 1.7-.1v1.4zm-19.6 12.7 3.1 1.9h3.5v1.8l-2 .5-2 .5-3.5-.9-3.5-1-1.5-2.9-1.5-2.9v-7.6l2.2 4.4 2.1 4.3 3.1 1.9zm20-8.2.6.9-1.3 1-1.2 1-2.2.4-2.2.3-.2-1-.2-1 2.4-1.2 2.4-1.3h1.4l.5.9zm-1.4 12.9v.9l-2.5 1.1-2.6 1.2H541v-1.7l2.3-1.1 2.2-1.1h3.8l3.7-.1v.8zm-16.4 3.1.9.9 5.8 2.1 5.8 2.1h9l2-1 1.9-1.1v1.8l-2.1 2.7-2 2.6h-7.5l-2.3-1.7-2.4-1.6-1.8 1.1-1.9 1.2h-5.9l-2-2.6-2.1-2.7V330h3.6l1 .9zm-18.4 18.8 1.8 1.6v1.3l-4.1-.4-4-.4-4 3.1-3.9 3.2v-2.2l1.1-2 1-2 3.2-1.9 3.2-2h3.8l1.9 1.7zm.3 5 3.5 1.7v1.1l-.9 1.4-.9 1.4-3.6-2.9-3.6-2.9V353h1.9l3.6 1.7zm20.9 1.7 1.1 1.7-2.4 2-2.3 1.9-.9-.6-.9-.5v-4.5l1.2-1.2 1.2-1.2 1 .3 1 .3 1 1.8zm-26.5.6h.8l2.6 2.6 2.7 2.6-.6 1-.6.9-2-2.6-1.9-2.5h-4.2l-4.2-.1 2-1.5 1.9-1.4 1.4.5 1.4.5h.7zm14.5 3.3-.6 2.2-1.9 3.1-1.9 3.1-2.5 1.1-2.6 1.2h-5.3l4-3.4 4-3.4 1.8-4.1 1.9-4 1.9 1 1.9 1-.7 2.2zm5.1 2 1.4 3.4-.6 2.4-.6 2.4-2.5 3.4-2.5 3.3-4.1 1.9-4.1 1.9h-8l-4.1-1.9-4.1-1.9-1.7-2.3-1.6-2.3v-2.9l1.8 1.4 1.7 1.5 5.5 2.7 5.6 2.7 3.2-.6 3.3-.7 2.9-2.7 2.8-2.6 1.2-6.2 1.3-6.2h1.8l1.4 3.3zm-20.2-1.2 2.2 1.2.7 1.1.8 1.1v2.9l-2.8-2.7-2.8-2.7h-2.5l-.9 2.2-.9 2.3v-2.1l-.1-2 1.2-1.2 1.2-1.2h1.7l2.2 1.1zm-9.3 6.3 1 2.6h-1.9l-1.6-3-1.5-2.9v-2.2l1.5 1.5 1.5 1.4 1 2.6zm9-1.9 1.3 1.5-.6.7-.7.6-1.5-1.3-1.5-1.2V364h1.8l1.2 1.5zm3.5 7.5h3l3.3-2 3.2-2v1.7l-2.6 2.4-2.5 2.4h-7.8l-2.7-2.1-2.8-2-.4-1.3-.4-1.2 3.4 2.1 3.3 2h3zm19.5 5-1.1 2-3.9 2-3.9 2h-6.4l-3.3 2.5-3.3 2.5h-3.9l-1.6-.6-1.6-.6-2.1-3.5-2.1-3.4.6-.6.6-.7 4.8 1.7 4.7 1.7h7.1l5.2-2.6 5.2-2.6 2.8-4.6 2.7-4.7.3 3.7.3 3.7-1.1 2.1zm-37-6.6v1.3l2 2.6 2 2.6-.8.5-.9.5-2.1-1.5-2.2-1.5V370h2v1.4zm4.4 14.1 2 3.6-1.5 1-1.4.9H499l-1.5-3.7-1.6-3.8.6-2.4.6-2.3 1.7 1.5 1.7 1.6 1.9 3.6zm-300.3-9.6-.1 2.3 2.5 5 2.5 5v2.5l2.3 2.1 2.3 2.2h2.4v1.9l-2 .6-2 .6-3-.6-3-.7v1.9l2.9.6 2.8.6 2.2-.6 2.2-.6 2.2 2 2.2 2 2.3.6 2.2.5v-1.4l-2.9-1.1-3-1.1-.9-3.3-.8-3.4-2-.4-1.9-.3-1.2-1-1.3-1v-7.1l-.7.7-.8.8-2.7-5.9-2.6-5.8-.1 2.4z"/><path d="M482 388.9v2.8l-2 2.5-1.9 2.5-3.1 1.3-3 1.2v1.8h1.1l3.7-1.9 3.7-1.9 1.8-3 1.7-3V386h-2v2.9z"/></g><g stroke="#000" stroke-width=".1"><path d="m334 125.1-11.5.8-9.7 2.1-9.6 2.1-9.4 3-9.3 3.1-10 4.8-10 4.8-9.5 6.2-9.5 6.3-3.5 2.9-3.5 3-7.9 7.7-7.9 7.6-5.2 6.5-5.3 6.5-4.9 7.5-5 7.5-4.5 9-4.5 9-3.7 10.1-3.6 10.1-2.6 12.4-2.6 12.4-.1 18.5-.1 18.5 1.7 10 1.7 10 2.5 8.9 2.6 8.9 3 7.6 3 7.6 5.1 9.5 5.1 9.5 3.5 5 3.5 5 5.8 7.1 5.8 7.1 9.5 9 9.6 9.1 9.7 6.5 9.8 6.5 10.4 5.2 10.3 5.1 10.3 3.5 10.3 3.4 9.4 2.1 9.3 2.1 19.5.5 19.5.5 12-2.1 12-2.2 10-3 10-3.1 11.2-5.3 11.2-5.3 8.8-5.8 8.8-5.7 7-5.7 7-5.8 5.6-5.9 5.6-5.8 4.6-5.8 4.7-5.7 5-7.5 5-7.4 4.4-8.8 4.4-8.8 3-8 3.1-8 2-7.5 2-7.5 1.6-10 1.7-10v-30l-1.1-8.4-1.2-8.4-2.5-9.6-2.5-9.6-2.5-7-2.5-7-4.8-9.6-4.8-9.6-3.8-5.9-3.9-5.9-6.7-8.5-6.7-8.5-7.4-7-7.3-7.1-6.5-5-6.5-5.1-8.2-5.1-8.2-5.2-7.8-3.6-7.8-3.6-5-1.8-5-1.8-7-2.1-7-2.1-8-1.4-8-1.5-7-.6-7-.6-5-.3-5-.4-11.5.9zm43.3 7.8 9.8 2 8.3 2.6 8.4 2.6 1.8 1.4 1.9 1.4-3.1.1h-3l-1.2 1.2-1.2 1.2v3.5l1.8 1.3 1.8 1.3 3.3 4.2 3.3 4.1-.6 2-.7 2.1 4.4 2.5 4.4 2.6h4.1l.5-1.3.4-1.2 2.6 1.4 2.6 1.4 1.6-.7 1.6-.6-1.1-1.9-1-2V163h2v2.8l2.3 1.5 2.2 1.6h-1.7l-1.8.1v2.8l-1.4.5-1.5.6.2 6.1.2 6.1-1.3.8-1.3.8-1.5 2.8-1.4 2.7v1.8h6.7l2.7 2.1 2.6 2v2.9h-2.2l-3.4 1.6-3.4 1.6v4l2.4 1.9 2.5 2 .3 3.7.3 3.7 3-.3 3-.2 1.3 2.7 1.2 2.7v4.3l-1.9 2.5-2 2.4.6 4.2.6 4.1-3.3 5-3.2 5.1-.5 3.9-.5 4 3.1 6.7 3.1 6.6v6.9l-1 2-1.1 1.9 2.6 4.3 2.6 4.2 2.5 3.5 2.5 3.5 2.7 1.5 2.7 1.6 4.6 2.7 4.6 2.7h4.6l2-1.8 1.9-1.7 3.8-.1h3.7l3.3-3.7 3.2-3.7h2.7l1.1 2.1 1.2 2.1 2.2-.6 2.3-.6-1.4 5.2-1.3 5.3.6 3.3.6 3.3 2.5 3.6 2.5 3.7-.6 6.5-.7 6.5-3 7.1-3 7-.5 5.5-.6 5.5-1.9 4.7-1.9 4.7v5.6l-2.1 3.4-2 3.4-5.4 6.6-5.3 6.6-4.9 5.1-4.8 5.1-7 5.9-7.1 6-8.5 5.7-8.6 5.7-10.4 4.9-10.4 5-9 2.9-9 3-7.9 1.6-7.9 1.7-10.6 1-10.6 1.1-12.5-.7-12.5-.7-10-1.9-10-2-10.5-3.5-10.4-3.5-10-5-9.9-5-8.7-6-8.8-6-7.8-6.8-7.9-6.8-5-5.9-5.1-5.9-4.5-6-4.5-6-3.1-5-3-5-3-5.5-2.9-5.5-3.2-7.6-3.1-7.5-2.5-8.6-2.5-8.6-1.7-9.8-1.8-9.9.1-17v-17l1.6-9 1.7-9 2-7.4 2.1-7.4 3.2-8.1 3.1-8.1.1-.5v-.5l.8-1.2.7-1.2 2.9-5.3 2.8-5.3 4.5-7 4.5-7 6.1-7.6 6.1-7.5 7-6.7 7-6.6 7.6-5.7 7.6-5.7.6.6.6.7-8.1 8.2-8 8.3-2.5 5.5-2.4 5.5-4.2 3.3-4.1 3.3v1.8l-2.6 2.6-2.5 2.5-2.4 5.3-2.4 5.2-1.2 9-1.2 9-.2 4.5-.3 4.5-.6 6.5-.7 6.5 1 1.5 1 1.5 1.2-1.2 1.1-1.1.7-5.9.7-5.8.7 9 .8 9-.1 4.7-.1 4.7 1.6 3.1 1.6 3.1 3.4 2 3.3 2 1.6 2.3 1.5 2.4 3.4.6 3.4.6 1.5 1.8 1.6 1.7 1.6 3.2 1.7 3.3h6.6l2.4 6.1 2.4 6 2.6 2.5 2.6 2.5 3.9.5 3.9.5 2.2.5 2.1.4 1.7 4.3 1.7 4.4-1.5 3.4-1.5 3.4-4.1 4.2-4.1 4.2v6l2.5 5.7 2.5 5.6v5.6l5.5 4.8 5.5 4.7 2.7 4.8 2.6 4.8 4.6 1.7 4.6 1.7 1.1 1.4 1.1 1.3.9 9.2.8 9.3.1 8 .1 8 1.3 9 1.3 9 1.4 3.2 1.3 3.2 5.3 3.1 5.3 3h7.6l.6-1.6.6-1.5-2.3-2.4-2.3-2.5 1.8-2 1.8-2-1.9-1.5-1.9-1.4 2.5-2.5 2.5-2.5 4.5-2.4 4.5-2.3 1.3-2.7 1.3-2.7h5.4l6-4.9 6-5 1.8-1.8 1.9-1.8 2.2-3.5 2.2-3.5 6.8-3.5 6.8-3.5 2.4-4 2.4-4 .7-3.5.6-3.5 1.3-3.2 1.4-3.1 5-6.7 5-6.6v-7.6l-2.5-2.3-2.6-2.4-4.2.1-4.2.2-3.6-2.5-3.6-2.5-3.5.3-3.5.2-3.7-1.8-3.8-1.8-2 .6-2.1.5-2.7-2.9-2.7-2.9-.6-4.3-.6-4.3-3.1-2.8-3-2.7-1.8-.1h-1.7l-4.3-.3-4.3-.2-3.7-4.1-3.7-4-6.2-3.2-6.2-3.1h-13.9l-.5-2-.5-2h-5.7l-3.2 2-3.2 1.9-1.1 2-1.1 2.1h-4l-2.4-1.6-2.5-1.6-3.1.6-3 .6-2.6-2.6-2.5-2.5.7-5.5.7-5.5-1.6-2.3-1.5-2.4-3.8-.7-3.8-.7-.7-.4-.8-.5 3.5-6.6 3.5-6.7-.8-.7-.7-.7-2.3-.7-2.3-.7-3.9 4.2-3.9 4.2-3.1-.7-3-.7-1.6-3.1-1.6-3.1.5-6.2.5-6.2 2.2-4 2.3-4 2.2-1 2.3-1.1 7.7.4 7.7.4 1.7 1.6 1.8 1.5h5.1l1.1 1.4 1.1 1.3-.2 4.9-.3 4.9h3l1.2-3.5 1.2-3.5-.6-3.7-.6-3.8 1.7-2.5 1.6-2.5 6-3 6-3v-8.5l1 1.5 1 1.5 1.1-1.8 1-1.7 1.2-1.1 1.2-1.1 3.6-2.1 3.7-2.2 4.2-2.9 4.2-3 .7 1.3.8 1.2 4.9-2.3 4.9-2.4 2.3-1.5 2.2-1.4V206h-8.2l.6-2.5.6-2.5h-8.5l1.5-1 1.5-1H334l-1 2.6-1 2.5v.9h12v-1.7l-2.5-2.3-2.5-2.3v-3.6l.9-.6 1-.5-5-5-4.9-4.9v-4.9l-.6-1.6-.6-1.6h-4.6l-1.2 1.5-1.3 1.5-1.3-1.1-1.4-1.1v-3.6l-1.4-1.1-1.5-1.2-3.8.3-3.8.3-.9 4-.8 4-1 2.7-1 2.8h-4.6l-.6 3.3-.6 3.2-2 1.3-2 1.2v-6.9l1-.6 1-.6V184l-2.4-.6-2.4-.6-.5-1.9-.5-1.9h-5.1l-1.2-2.1-1.1-2.1 1.4-1.4 1.3-1.4 6.2-2.4 6.1-2.4.9.8.8.8 3.5.4 3.5.3.3-2.3.3-2.2h.7l5.8 3.5 5.8 3.5h6.6l1.3-2.8 1.2-2.7.8-.6.9-.7-1.2-3.6-1.2-3.7-3.6-3.8-3.7-3.8-9.9-1.4-10-1.3-1.5-1.8-1.5-1.8h-6.7l-1.5 3.6-1.5 3.5-1.2-.4-1.2-.4.3-2.4.4-2.4 1.1-2.5 1.2-2.5 3.5-1.6 3.5-1.7 8.9-2.2 8.9-2.2 8.1-1.3 8.1-1.3 18 .3 18 .3 9.8 2.1zm85.9 46.8 1.8 1.6v1.7h-2.9l-1.5-1.6-1.6-1.5V178h2.3l1.9 1.7zm-2.2 13.8 1.4 1.5H461l-1.5-.1-3.5-2-3.5-2 3.5.6 3.5.5 1.5 1.5zm18.9 7.3 3.1 4.9v5.3h-6.9l-.6 1.1-.7 1 1.8 2 1.7 1.9-.4.5-.5.5-5.2-.7-5.3-.6-2-2.8-2-2.9h-7.8l-3.8 4.5-3.7 4.5-2.6-.1h-2.5l2.2-1.5 2.2-1.6-.6-8.4-.6-8.3 1.3-1.6 1.3-1.5 2.2 4.9 2.3 4.9 1 .6 1 .6 1.2-1.6 1.3-1.5-1.6-3.4-1.7-3.5h2.6l2.2 1.6 2.2 1.5v6.9h3.8l1.2-1.5 1.2-1.5-.6-2.5-.7-2.5 2.1 1.2 2.1 1.3 1.3-1.8 1.3-1.7h2.3v-3h1.8l3.1 4.8z"/><path d="m346.5 138.4-5 1.2-3.5 1.8-3.5 1.8-1.7 1.6-1.8 1.5v3.5l3.4.6 3.3.6 1.8 2 1.7 1.9-.4 3.8-.5 3.8-.7 1.6-.7 1.5 4.2 5.3 4.1 5.2 2.9 1.4 2.8 1.5h2.1l2-2 2-2v-8.5l2.2-1 2.3-1 1.3-2.8 1.3-2.7h4.7l1.1-1.4 1.2-1.4-1.9-1.9-2-1.8-2-4-2-4-2.5-2.1-2.5-2.2-.3-1-.4-1.1-4-.5-4-.5-5 1.3zm-21 1.7-3 .9-7.9.5-7.9.5-.4.3-.3.4.6 1.7.6 1.6 2.2.4 2.1.5 6.7 1.1 6.6 1.2 1.9-1.9 2-1.8 3.2-1.8 3.3-1.7-.4-1.3-.5-1.2-2.9-.2-2.9-.2-3 1zm82.1 29.6-.6.6v5.5l1.6.6 1.5.6-.6 1.1-.7 1 .6 3.5.7 3.4h5.8l.9-1.6.9-1.5 1.2 1.5 1.3 1.6h3.7l1.5-1.6 1.6-1.5V180l-4.7-2.3-4.8-2.2-.3-.7-.4-.8-1.6-1.9-1.7-1.9-2.6-.6-2.6-.6-.7.7zm-141.1 96.2-.5 1 .7.4.8.5 3 .6 3.1.7 2.7 2.5 2.7 2.5v1.6l3 .6 2.9.6 3-1 3.1-1.1-.5-.8-.5-.9-2.8-1.4-2.7-1.5-4.9-2.6-4.9-2.6h-7.6l-.6.9zm22.4 12.1-1 .7.6 1.5.6 1.6 2.1.6 2.1.5 4.9-1 4.8-1.1v-2.7l-4.2-.6-4.3-.5-2.3.2-2.3.2-1 .6z"/></g></svg>