<?xml version="1.0" encoding="utf-8"?>
<!-- Generator: Adobe Illustrator 27.0.0, SVG Export Plug-In . SVG Version: 6.00 Build 0)  -->
<svg version="1.1" id="Layer_1" xmlns="http://www.w3.org/2000/svg" xmlns:xlink="http://www.w3.org/1999/xlink" x="0px" y="0px"
	 viewBox="0 0 6000 3000" style="enable-background:new 0 0 6000 3000;" xml:space="preserve">
<style type="text/css">
	.st0{fill:#15163C;}
	.st1{fill:#ED2025;}
</style>
<g>
	<path class="st0" d="M3623.9,1602.7c-7.9,33.2-18.4,65.9-27.5,99c-8.9,32.5-18.6,64.9-27.9,99.4c180,0.1,357.7-0.4,535.5-0.7
		c177.9-0.3,355.8-0.8,533.6-1.1c177.2-0.3,354.4-0.6,531.6-0.7c177.7-0.1,355.4,0,533.2,0c1.6,6.9-3.1,10.6-5.7,14.8
		c-56.3,90.3-112.8,180.6-169.2,270.9c-31,49.6-62.1,99.3-93.2,148.9c-2.5,3.9-4.9,7.9-7.3,11.9c-2.3,3.8-5.7,5.3-10,5.2
		c-4.7-0.1-9.3,0-14,0c-695.5-0.1-1391.1-0.3-2086.6-0.4c-3.3,0-6.7,0.1-10,0c-10.5-0.3-11.1-0.7-11.2-11.5c-0.1-16-0.1-32,0.1-47.9
		c0.1-6.5,1.9-8.1,8.6-8.2c11.3-0.1,22.7-0.2,34,0.3c7.4,0.3,12.3-2.3,16.7-8.3c24.1-32.7,48.3-65.3,72.9-97.6
		c17.6-23.1,8.7-19.1,37.1-18.4c33.3,0.8,66.6,2.2,99.8,4.1c9.3,0.5,14.6-2.7,19-10.5c7.6-13.3,16.1-26,24.1-39.1
		c4.1-6.7,2.6-9.2-5.7-9.3c-34-0.3-68-0.3-101.9-0.5c-6.5,0-13.1-0.3-19.2-0.5c-2.3-5,1.1-7.1,2.8-9.5
		c14.9-20.5,30.3-40.6,44.8-61.3c5.4-7.7,11.3-9.3,20.2-8.5c40.4,3.8,80.9,6.9,121.4,10.2c4,0.3,8,0.4,12,0.5c3.5,0,6.4-1.2,8.2-4.5
		c0.6-1.2,1.3-2.3,2.1-3.4c27-41.2,35.4-57.5,32.2-58c-21-3.6-42.2-1.6-63.4-2c-52.6-1.1-105.2-1.7-157.9-2.6c-2,0-4,0-6-0.2
		c-7.3-0.8-12.9,1.2-16.6,8.1c-2.5,4.7-5.9,8.8-8.9,13.2c-55.2,81.6-110.4,163.2-165.7,244.7c-2.2,3.2-3.9,9.1-7.6,8.2
		c-6.2-1.4-2.8-7.8-2.9-11.9c-0.3-29.3-0.1-58.6-0.3-87.9c0-6.7-1.3-7.8-8.3-8c-4.7-0.2-9.3-0.1-14-0.1
		c-358.4-1-716.8-1.9-1075.3-2.8c-7.3,0-14.6,0.4-21.9,0.8c-4.7,0.2-7.1,3.3-7.7,7.7c-1.8,13.2-3.3,26.4-5,39.6
		c-6.9,54.8-13.8,109.6-20.5,164.4c-0.6,5.3-3.7,6.5-8,6.6c-5.3,0.1-10.7,0.1-16,0.1c-98.6-0.1-197.2-0.3-295.8-0.5
		c-65.9-0.1-131.9,0.7-197.8-0.9c-65.9-1.6-131.9,0-197.8-1.2c-130.5-2.5-261.1-1.5-391.6-1.8c-66.6-0.2-133.3,0.6-199.8-1
		c-65.9-1.6-131.8,0-197.8-1.2c-131.2-2.5-262.4-1.5-393.6-1.8c-42-0.1-83.9-0.4-125.9-0.7c-1.8,0-4,0.6-5.1-1.9
		c-0.9-2.1-0.4-3.8,0.8-5.5c9.9-13.4,19.7-26.8,29.7-40.1c97.5-130.7,195.1-261.4,292.7-392.1c2-2.7,4.4-5.1,6.1-7.9
		c3.1-5.2,7.3-6.9,13.3-6.7c20,0.6,39.9,1.1,59.9,1.1c506.3,1.7,1012.6,3.3,1519,5c6.7,0,13.3,0,20-0.4c3-0.2,4.8-2.4,4.6-5.3
		c-0.3-3.9-1.1-7.9-2-11.7c-10.7-43.2-21.5-86.4-32.2-129.7c-0.6-2.5-1-5.1-1.5-7.8c6.4,0,8,5.1,10.7,8.4
		c38.7,47.5,77.2,95.1,115.7,142.7c2.5,3.1,4.8,6.4,7.6,9.2c1.8,1.8,4.1,4.1,6.3,4.3c9.3,0.8,18.6,1.1,27.9,1.3
		c3,0.1,6.1-0.7,11.3-1.4c-31.8-38.7-65-73.1-96.2-109.2c-31.2-36.1-63.3-71.4-93.8-107.2c1-2,1.1-2.7,1.6-3.1
		c0.5-0.4,1.3-0.4,1.9-0.4c528.3,0.6,1056.6,1.1,1584.8,1.7c0.6,0,1.2,0.3,1.7,0.7c0.5,0.4,0.8,1,1.5,1.8
		c-2.3,6.5-8.2,9.9-12.9,14.4c-68.9,64.8-137.9,129.5-206.8,194.3c-1.5,1.4-3,2.7-4.2,4.2c-0.7,0.9-1,2.3-1.1,3.6
		c-0.1,1.7,0.9,2.4,2.5,2.5c5.3,0.4,10.6,0.8,15.9,1.4c5,0.6,9.1-0.5,12.6-4.3c2.2-2.4,4.9-4.5,7.3-6.8
		c60.3-56.5,120.5-112.9,180.8-169.5c5.8-5.5,11.3-11.3,17-16.9C3617.4,1603.5,3619.3,1601.4,3623.9,1602.7z M1418.4,2106.3
		c5.1-6.5,9.5-7.9,13.5-9.9c56.1-28.9,112.2-57.8,168.3-86.7c49-25.2,98-50.5,147-75.8c5.3-2.7,11.4-4.3,14.9-9.6
		c12.4-18.9,24.6-37.9,36.8-57c1.5-2.3-0.3-5.4-3.1-5.6c-4.6-0.2-9.3-0.3-14-0.3c-72.6-0.8-145.1-1.7-217.7-2.5
		c-45.9-0.5-91.9-0.7-137.8-1.3c-7.3-0.1-12.3,1.9-17,7.7c-12.1,15-24.9,29.4-37.4,44.2c-1.6,1.9-3.9,3.8-1.8,6.9
		c14.5,0,29,0.2,43.6,0c63.2-1.1,126.5-2.3,189.7-3.3c3.1,0,8.1-2.9,9.7,3.6c-3.5,1.8-6.9,3.6-10.5,5.3c-45,21.3-90,42.6-135.1,63.9
		c-79.3,37.5-158.5,74.9-237.9,112.3c-8.7,4.1-15.5,9-19.4,18.6c-5.8,14.1-13.2,27.6-19.9,41.3c-1.4,2.9-3.6,5.7-1.1,10.3
		c5.8,0.3,12.3,0.8,18.8,0.9c22.6,0.6,45.3,0.9,67.9,1.6c88.5,2.8,177,5.6,265.5,8.7c7.5,0.3,12.5-1.7,16.7-7.9
		c13.4-19.8,27.3-39.4,40.9-59.1c1.1-1.5,2.4-3.3,0.3-6.2C1540.2,2106.3,1480.6,2106.3,1418.4,2106.3z M5033,2065.2
		c14,0.2,25.8,0.6,37.6,2.1c7.9,1,15.9,1.6,23.8,2.3c4.3,0.4,7.8-0.9,10.2-4.6c1.8-2.8,3.7-5.5,5.5-8.3
		c40.8-60.7,81.6-121.5,122.4-182.2c2.5-3.8,4.7-7.8,7-11.7c-5-4.6-10.6-2.9-15.7-2.9c-91.9-0.9-183.8-1.5-275.6-2.7
		c-10-0.1-15.3,3.6-20.8,11.5c-71.2,101.2-142.8,202.1-214.3,303.1c-1.8,2.5-4.8,4.8-2.3,9.2c2.2,0.1,4.7,0.4,7.3,0.4
		c25.3-0.8,50.6-1.6,75.9-2.7c21.2-0.9,16.4,2.8,28.8-15.4c17.3-25.2,34.3-50.7,51.7-75.8c4.9-7.1,7.9-17,15.7-20.1
		c7.5-3,16.9-1.6,25.5-1.4c7.9,0.2,17.5-3.4,23.1,1.9c6.5,6.1,2.5,16.3,2.6,24.7c0.1,28-0.2,55.9-0.5,83.9c-0.1,8.1,2.4,9.1,9.4,8.8
		c27.3-1.4,54.5-2.6,81.8-4c4.7-0.2,9.3-0.4,13.9-0.9c5.2-0.5,6.6-2.6,5.7-8.1C5045.7,2137.5,5039.6,2102.8,5033,2065.2z
		 M2678.4,1641.3c-5.1,0-9.7,0.1-14.4,0c-46.6-0.6-93.1-1.3-139.7-1.9c-50.6-0.6-101.1-1.1-151.7-1.4c-19.2-0.1-14.8-3.3-26.8,14.6
		c-20.7,31-41.4,61.9-62,92.9c-29.4,44.3-58.5,88.8-88,133c-4.5,6.8-7.6,13.9-8.3,22c-1.5,17.9-3.4,35.7-4.7,53.6
		c-0.3,3.6-2.1,7.9,2.1,11.3c6.1,2.4,12.7,1.1,19.3,1c83.2-1.5,166.3-3.4,249.5-4.6c10-0.1,15.5-3.9,20.7-11.8
		c66.3-98.8,132.9-197.4,199.4-296.1C2675.9,1651,2679.6,1648.4,2678.4,1641.3z M4661.6,1861.3c-2.2-2-2.6-2.7-3.1-2.7
		c-32.6-0.7-65.2-1.4-97.8-2.2c-3.6-0.1-6.4,0.8-8.4,4c-1.7,2.8-3.8,5.4-5.7,8.2c-65,97.4-130,194.7-195,292.1
		c-2.2,3.3-4.4,6.6-6.4,10.1c-1.5,2.5,0.1,5.6,2.8,5.7c5.3,0.2,10.6,0.2,16,0.2c93.2,0,186.4,0.1,279.6-0.1c24.2,0,18,3.6,32-16.6
		c64.2-93.1,128.1-186.4,192.1-279.6c3-4.4,6-8.7,8.9-13.2c2-3.2,0.1-6.6-3.8-6.6c-34,0.3-67.9,0.7-101.9,1c-4.4,0-7.6,1.7-9.9,5.4
		c-2.4,4-5.1,7.8-7.7,11.6c-41.1,62.1-82.3,124.2-123.4,186.3c-9.9,15-19.9,29.9-29.7,45c-3.1,4.7-6.4,7.6-12.6,8
		c-35.9,2-71.7,4.5-107.6,6.7c-2.5,0.2-5-0.2-7.3-0.3c-0.3-1.4-0.8-2.3-0.5-2.7C4533.2,2033.5,4599.1,1949.1,4661.6,1861.3z
		 M262.4,2165.8c13.9,1,24.5,1.9,35.1,2.4c82.5,3.2,165.1,6.2,247.6,9.3c4.7,0.2,9.4-0.4,14,0.3c8.5,1.4,13.3-2.8,18.2-9.1
		c42.6-56.3,85.4-112.3,128.1-168.6c2.2-2.9,6.2-5.4,4.3-11c-12.2-1.1-24.8-2.5-37.3-3.3c-29.2-1.9-58.5-3.5-87.7-5.3
		c-19.3-1.2-38.5-2.5-57.8-3.9c-5.3-0.4-6.7-3.5-3.3-7.9c15.6-19.9,31.5-39.6,46.8-59.7c4.6-6.1,9.9-7.9,17.1-7.5
		c41.2,2.2,82.5,4.2,123.7,6.3c21.3,1.1,42.6,1.9,63.9,3.1c5,0.3,9.2-0.7,11.9-5.3c8-13.8,16.2-27.5,24.2-41.3
		c1.9-3.2-0.2-6.1-4.4-6.4c-0.7,0-1.3,0-2-0.1c-74.5-2.8-149.1-5.5-223.6-8.4c-20-0.8-39.9-1.8-59.9-3.2c-6.8-0.5-11.6,1.5-14.8,7.5
		c-1.3,2.3-3,4.4-4.5,6.6c-36.7,53.9-73.4,107.8-110,161.9c-3.1,4.6-10.1,9.1-6.9,15c2.5,4.7,9.8,2.6,15,2.8
		c48.6,2,97.2,3.8,145.8,5.7c3,0.1,6.8-1.3,9,4.1c-13.2,18.2-26.9,36.9-40.5,55.7c-3.6,5-8.3,5.7-14,5.4
		c-47.9-2.9-95.7-5.7-143.6-8.4c-17.3-1-34.6-1.5-51.9-2.2c-4.3-0.2-7.5,1.2-9.7,5.4C284.8,2124.9,274.3,2144,262.4,2165.8z
		 M2895.7,1962c27,0.4,53.6,0.5,80.3,1.4c9.8,0.3,15.9-2.5,20.6-11.4c12.2-22.9,25.2-45.4,38.1-67.9c5.3-9.2,9.1-20.5,16.9-26.7
		c8.8-6.9,21.8-2.5,32.9-2.8c23-0.5,21.5-2.1,20.5,21.6c-1.2,27.3-2.3,54.6-3.2,81.8c-0.2,6.9,1.1,8.2,8,7.9
		c32.6-1.5,65.2-3.2,97.8-4.7c4.7-0.2,7.5-2.2,7.5-7.2c0-3.3-0.2-6.7-0.4-10c-2.1-31.2-4.2-62.4-6.2-93.7c-0.2-3.8-2.2-7.7,1.8-11.9
		c1.9-0.1,4.5-0.7,7.1-0.5c14.6,1,29.3,1.7,43.8,3.4c9.7,1.2,15.8-1.9,21.6-9.9c39.3-54.6,79-108.8,118.5-163.2
		c2.2-3,6.5-6,3.9-10.3c-1.8-3-6-1.7-9.2-1.9c-2-0.1-4,0-6,0c-84,0.2-167.9,0.4-251.9,0.7c-8.7,0-17.3,0.8-26,0.5
		c-6.2-0.2-10,2.5-12.9,7.4c-1,1.7-2.2,3.3-3.4,5c-65.6,93.8-131.3,187.6-196.8,281.5C2897.2,1953.8,2894,1956,2895.7,1962z
		 M3059.2,1641.8c-35.3,0-67.8,0-100.2,0c-3.7,0-6.2,2.2-8,5.1c-2.9,4.5-5.7,9-8.5,13.5c-48,77.5-95.9,155-143.9,232.6
		c-2.5,4-5.1,7.8-7.3,11.9c-2.6,4.9-6.4,6.1-11.6,5.6c-28.5-2.4-57.1-4.6-85.6-7.1c-7.7-0.7-15.4-1.8-25.6-3.1
		c18.5-29.2,36.7-55.9,54.5-83c18.3-27.8,36.9-55.4,55.1-83.3c17.6-27.1,36.5-53.4,54.2-83.5c-10.8-0.8-19.2-0.2-27.6,0.2
		c-23.3,1.1-46.6,2.7-69.9,3.1c-9.7,0.2-15.6,3.1-20.7,11.6c-20.1,33.7-41,67-61.6,100.4c-38.4,62.3-76.9,124.6-115.2,186.9
		c-2.2,3.6-6.8,6.8-3.4,12.4c2.6,0,5.2,0.1,7.9,0c45.3-1.1,90.6-2.3,135.9-3.4c51.3-1.3,102.6-2.7,153.8-3.8
		c5.8-0.1,10.3-1.3,13.2-6.8c1.5-2.9,3.8-5.5,5.7-8.2c66.1-95.1,132.1-190.3,198.2-285.4C3051.7,1653.2,3054.5,1648.8,3059.2,1641.8
		z M3568.3,2180.2c4.2,3.4,8.9,1.6,13.3,1.5c33.9-1.1,67.8-2.6,101.8-3.7c53.2-1.8,106.4-3.5,159.6-5.4c13.3-0.5,26.6-1.8,39.9-2
		c7.5-0.1,12.1-3,16.2-9.1c14.6-21.4,29.7-42.5,44.7-63.7c48.2-68.5,96.5-137,144.6-205.7c3.6-5.2,8.8-9.7,10.1-18.3
		c-24.2-1.5-47.2-3-70.3-4.2c-8-0.4-16.6-2.1-23.7,0.3c-8.4,2.8-10.6,13-15.1,20.1c-45.2,72.1-90.4,144.2-135,216.7
		c-6.5,10.7-13.7,13.9-25.7,13.4c-38.6-1.6-77.2-2-115.8-2.9c-2.5-0.1-5.3,0.7-8.1-2.8c1.2-6,6.2-10.6,10-15.7
		c50.1-68.8,100.3-137.6,150.4-206.4c4.7-6.4,9.4-12.9,13.9-19.5c2.3-3.3,0.6-6.2-3.7-6.4c-29.3-1.3-58.5-2.5-87.8-3.8
		c-4.3-0.2-7.8,1-10.2,4.8c-1.8,2.8-3.7,5.5-5.6,8.2c-65.9,97.5-131.9,195-197.7,292.6C3571.8,2171.9,3568,2175.1,3568.3,2180.2z
		 M982.2,2101.8c-1.1-0.2-1.7-0.4-2.4-0.4c-32.6-0.8-65.2-1.7-97.8-2.5c-19.3-0.5-38.6-0.8-57.9-1.2c-8.6-0.2-17.3-0.2-25.9-0.4
		c-0.6,0-1.4-0.2-1.9-0.5c-0.5-0.3-0.7-1-1-1.5c-0.1-0.6-0.5-1.5-0.3-1.9c12.3-18.1,24.7-36.3,37.1-54.3c2.5-3.7,6.2-4.5,10.5-4
		c14.5,1.8,29.1,3.5,43.6,5c24.5,2.6,49,5.1,73.5,7.6c3.6,0.4,6.5-0.6,8.5-3.8c10.8-17.4,21.4-34.7,31.8-53.1
		c-6.1-3.8-11.4-2.3-16.4-2.3c-34,0.2-67.9,0.7-101.9,1c-3,0-6.8,1.2-8.5-4c17.9-21.7,36.1-43.7,54.2-65.8c3.7-4.5,7.8-6.3,13.7-6.2
		c31.3,0.9,62.6,1.4,93.8,2.1c23.3,0.6,46.6,1,69.9,2.2c9,0.5,14.7-2.8,20.1-9.7c11.1-14.1,23-27.6,34.5-41.4c2-2.4,4.9-4.8,2.2-8.5
		c-99.8,0-199.7,0-299.5-0.1c-4.8,0-7.5,2.1-9.7,5.4c-7.6,10.9-14.9,22-22.4,33c-60.2,88.6-120.4,177.1-180.5,265.8
		c-3,4.5-8.1,8.5-7.4,15.2c2.7,0.3,4.7,0.7,6.7,0.7c89.2-1.5,178.4-3.1,267.6-4.5c6.6-0.1,11.1-2.2,15.3-7.2
		c15.8-18.9,31.9-37.6,47.8-56.4C980.8,2108.3,983.2,2106.7,982.2,2101.8z M1776.5,2098.7c14.6-19.5,28.7-38.1,42.4-56.9
		c4-5.5,8.5-7.3,15.3-6.7c23.2,2.2,46.4,3.9,69.7,5.7c14.6,1.1,29.2,1.9,43.8,2.9c3.5,0.2,7.1,0.1,9-3c8.5-14,17.8-27.6,24.8-44
		c-8.8-2.9-16.7-2.5-24.5-3c-31.2-1.7-62.5-3.4-93.7-5.2c-1.7-0.1-4.1-1.3-4.7-2.7c-0.6-1.3,0.3-3.9,1.4-5.2
		c16.6-18.2,33.6-36.1,49.8-54.6c5.9-6.7,12.2-8.9,20.8-8.8c29.3,0.4,58.6,0.1,87.9,0.1c24.6,0,49.3,0.2,73.9-0.1
		c23.8-0.2,17.6,3.4,30.3-18.2c6.4-10.9,12.6-21.9,18.7-33c1.5-2.7,4.1-5.3,2.3-10.2c-3.3-0.1-7.1-0.4-10.9-0.3
		c-57.3,0.7-114.5,1.5-171.8,2.3c-28.6,0.4-57.3,1.4-85.9,1.5c-10.8,0-18.1,3.1-25,12.4c-73.1,99.1-146.7,197.8-220.2,296.6
		c-1.9,2.5-4.8,4.8-2.5,9.6c4.1,0,8.7,0.1,13.4,0c93.2-1.4,186.5-2.8,279.7-4.2c1.3,0,2.7-0.1,4,0c5.1,0.2,8.5-1.4,11.1-6.4
		c9.7-18.9,20-37.6,30-56.4c1.9-3.6,0.1-6-4.2-6.3c-2.7-0.2-5.3-0.2-8-0.2c-53.9-0.9-107.9-1.8-161.8-2.8
		C1787.1,2101.6,1782.3,2103.3,1776.5,2098.7z M5574.8,1858.4c-9.1,0-14.2-0.1-19.3,0c-79.2,1.2-158.4,2.3-237.7,3.5
		c-2.7,0-5.3,0.1-8,0c-4.4-0.2-7.5,1.6-9.7,5.5c-1.6,2.9-3.7,5.5-5.5,8.3c-62.4,96.7-124.8,193.4-187.1,290.1
		c-2.2,3.4-4.4,6.6-6.5,10.1c-2.2,3.8-0.8,6.3,3.9,6.3c25.3-0.1,50.6-0.3,75.9-0.7c55.3-1,110.5-2.2,165.8-3.1
		c7.4-0.1,12.3-2.4,16.5-8.6c10.5-15.4,21.6-30.3,32.4-45.5c1.8-2.6,4.4-5.1,1.5-8.8c-7.2,0-14.5-0.1-21.8,0
		c-47.9,0.5-95.9,1-143.8,1.5c-5.5,0.1-7.1-2.8-4-7.3c15.3-22.6,30.8-45,46-67.7c3.8-5.6,8.2-7.6,15-7.1c26.5,2.2,53.1,3.9,79.7,5.7
		c8.6,0.6,17.3,0.5,25.9,1.3c6.7,0.6,11.3-1.6,15.3-6.8c9.3-12.1,19-24,28.5-36c1.9-2.4,5.1-4.6,2.9-9.2c-44.6-1-89.5,0.5-133.6-0.7
		c-2.4-4.5,0.1-6.3,1.5-8.3c11.3-15.6,23-31,34-46.8c5.4-7.8,11.6-11.4,21.4-11.4c30,0.2,59.9-0.5,89.9-1c22-0.3,43.9-0.8,65.9-0.8
		c6.6,0,11.3-2.1,15.2-7.5C5547.2,1896.1,5559.9,1879,5574.8,1858.4z M4224,1934c-14.8,23-27.7,43.1-40.6,63.1
		c-13,20.1-25.9,40.3-38.9,60.4c-13,20.1-26.1,40.1-38.9,60.4c-12.6,20.1-26.9,39.2-37.8,60.4c5.2,3.7,9.8,1.7,14.2,1.6
		c22-0.6,43.9-1.5,65.9-2.4c29-1.2,20.8,3.8,36.2-19.8c47.9-73.6,95.5-147.3,142.9-221.2c5.2-8.1,10.9-12.6,20.8-11.4
		c5.9,0.7,12,0.2,18,0.2c30.6,0.1,61.3,0.1,91.9,0.4c6.6,0.1,11-1.8,14.8-7.6c9.3-14.5,19.4-28.6,29.1-42.9c1.8-2.6,4.3-5.2,1.8-9.3
		c-7,0-14.3-0.1-21.6,0c-101.2,1.1-202.4,2.2-303.6,3.3c-9.2,0.1-18.4,0.9-26.8-2.6c-13.7,18.6-26.8,36.3-39.7,54
		c-1.8,2.4-5,4.8-1.7,9C4146.5,1930.1,4183.6,1930.7,4224,1934z M982.9,2173.5c12.5,0,21.2,0.2,29.8,0c29.3-0.9,58.5-1.8,87.8-2.8
		c22.6-0.8,16.6,2.7,30.4-16.5c58.8-81.4,117.4-163,176.1-244.5c8.9-12.4,17.9-24.8,26.8-37.2c3-4.3,1.4-7.4-4.1-7.4
		c-33.9-0.1-67.9,0-101.8-0.2c-5.1,0-8.9,1.8-11.9,5.8c-2,2.7-4,5.3-6,7.9c-71.1,92.2-142.2,184.4-213.2,276.6
		C992.7,2160.2,988.9,2165.4,982.9,2173.5z"/>
	<path class="st1" d="M3682.8,1198c1.2-99.4,3.1-256.5,5.1-413.6c0.1-5.3,0.2-10.7,0.6-15.9c0.2-1.9,1.6-3.6,3.8-3.9
		c1.3-0.2,2.6-0.4,4-0.4c4.7-0.1,9.3-0.2,14-0.3c149.2-1.8,298.4-3.7,447.6-5.4c25.6-0.3,22.7-2.8,22.6,21.9
		c-0.7,205.1-1.5,410.2-2.3,615.3c0,6,0,12-0.2,18c-0.1,4.8-2.9,7.1-7.6,7.1c-10.7,0.1-21.3,0.2-32,0.3c-19.3,0.1-38.6,0-57.9,0.5
		c-6.2,0.2-15.2-3.7-18,2.9c-2.5,5.8,5.1,11.4,8.7,16.7c65.6,97,131.5,193.9,197,291c3.8,5.6,12.8,11.1,8.5,18.4
		c-3.1,5.4-12.2,2.3-18.6,2.5c-47.3,1.5-94.5,2.7-141.8,3.9c-10,0.3-20,0.6-30,0.6c-19.3,0.1-15.8,1.9-25-13.6
		c-15.7-26.3-31.3-52.6-46.9-79c-44.4-75-88.8-150-133.2-225.1c-3-5.1-6.3-10.1-9.6-15.1c-0.9-1.4-2.3-1.4-3.5-0.5
		c-0.5,0.4-1.2,0.8-1.2,1.2c-0.2,6-0.4,12-0.4,18c-0.4,91.2-0.8,182.5-1.3,273.7c0,2.7,0,5.3,0,8c0.1,18.1,0.7,17.4-17.4,17.8
		c-51.9,1-103.9,1.9-155.8,2.9c-2.7,0-5.3,0.1-8,0c-5.9-0.2-7.3-1.5-7.4-6.8c-0.1-4,0.1-8,0.2-12
		C3678.5,1570.1,3680.3,1413,3682.8,1198z M3952.4,917.4c0,0.5,0,1,0,1.6c-21.9,0-43.9-0.2-65.8,0.1c-15.6,0.2-15.7,0.5-16,15.2
		c-1.6,95.1-3.2,190.2-4.7,285.3c-0.1,4,0,8,0,12c-0.1,5.2,2.9,6.8,7.5,6.9c31.9,0.9,63.8,1.9,95.8,2.8c10,0.3,20,0.6,29.9,0.6
		c9.4,0,10.2-0.8,10.8-9.9c1.4-21.9,2.7-43.8,4-65.7c1.9-33.2,3.8-66.4,5.7-99.6c2.8-47.8,5.7-95.6,8.5-143.4
		c0.4-6.9-0.8-8.4-7.8-8.2C3997.6,915.7,3975,916.6,3952.4,917.4z"/>
	<path class="st1" d="M1245.1,1499.8c-2.6-3.3-1.4-6.1,1.1-8.6c8.4-8.5,16.7-17,25.1-25.5c5.1-5.2,10.3-10.4,15.4-15.6
		c22.2-22.5,22.2-22.5,3-51.4c-14,12-27.9,24-41.9,36c-1.1-1-2.1-2.1-3.2-3.1c12.5-18.5,24.9-37,37.5-55.6c-8.7-9.9-18-18.2-29.5-26
		c-26.9,34-53.5,67.6-80.1,101.3l0.4-0.1c-2.9-4.9-0.1-8.9,1.9-13.1c7.7-16.2,15.5-32.4,23.2-48.6c1.7-3.6,3.4-7.2,5.1-10.8
		c1.9-3.9,1.8-7.7-1.2-11.1c-4-4.5-8-8.9-11.7-13.1c-5.3-0.1-7.2,3.9-9.6,6.8c-23.1,28.4-46.2,56.8-69.3,85.3
		c-4.6,5.7-9.3,11.3-13.9,17c-2.8,3.5-5.9,5.1-10.4,3.3c-3.7-1.5-7.4-3.2-11.2-4.1c-7.4-1.6-11.2-5.7-13-13.2
		c-2.6-11-6-21.8-9.3-32.6c-2.1-6.7-4.2-8.2-9.9-6.3c-29.5,9.8-26.5,2-22.4,34.6c0.2,2,1.1,4,1,5.9c-1.2,24.6,10.8,42.9,27.5,59.3
		c8,7.9,14.6,17.4,22.6,25.4c7.6,7.6,10.4,15.7,10.1,26.6c-1.5,48.6-2.2,97.2-3.2,145.8c-0.1,4-0.2,8-0.4,12
		c-0.2,4.1-2.8,5.7-6.5,5.8c-4,0.1-8,0-12-0.3c-34.6-2-69.1-4.2-103.7-6.1c-16.6-0.9-33.3-1.5-49.9-2.4c-6-0.3-11.9-0.9-17.9-1.7
		c-2.8-0.4-4.9-2.2-5.1-5.2c-0.3-4-0.3-8-0.2-12c2.2-145.1,4.4-290.3,6.5-435.4c1-71.9,1.8-143.8,2.8-215.7
		c1.3-90.5,2.6-181.1,3.9-271.6c0.1-5.3,0.1-10.7,0.4-16c0.2-4,2.9-5.8,6.5-5.8c7.3-0.1,14.6,0.1,22,0.3
		c88.6,1.8,177.1,3.5,265.7,5.6c73.9,1.7,147.8,3.8,221.7,5.7c2.7,0.1,5.3,0.2,8,0.3c10.7,0.6,11,0.6,10.9,11.6
		c-0.5,64.6-0.9,129.2-1.6,193.7c-1.7,145.1-3.5,290.3-5.2,435.4c-1.1,99.2-2,198.4-3.2,297.6c-0.3,24.7,2.7,22-23,21.7
		c-48-0.5-95.9-1.1-143.9-1.7c-4.7-0.1-9.3-0.1-14-0.4c-8.4-0.5-9.4-1.6-9.5-9.1c0-2.7,0.1-5.3,0.2-8c1.5-42.6,3.2-85.2,4.3-127.7
		c0.2-8.9,3.6-14.9,9.9-20.5c17.3-15.6,34.1-31.8,51.4-47.4c5.8-5.2,7.5-10.4,4-17.4c-1.8-3.5-2.8-7.5-4.1-11.2
		c-5.6-15-5.8-15.4-18.5-6.5c-11.3,7.9-24.2,13.9-33.8,24.2L1245.1,1499.8z M1095.8,1262c24.8,1,48,1.1,71.2,3.7
		c18.5,2,37.2,2.7,55.8,3.6c10.3,0.5,11.4-0.4,14.3-9.8c6.7-21.8,9.1-44.3,8.2-67c-1.4-33.8-9.8-65.6-27-95
		c-8.9-15.3-12.6-32.1-11-49.8c2.2-24.6,6.2-48.8,14.8-72.1c2.8-7.5,5.5-15,8.1-22.5c3.5-10.5,2.4-12.2-9.3-13.9
		c-15.8-2.4-31.6-4.7-47.4-7c-24.4-3.5-48.8-6.6-73-10.8c-8.8-1.5-13.6,1.7-17.9,8.5c-9,14.2-15.7,29.4-18.8,45.9
		c-2.6,13.7-3.5,27.7-6.1,41.4c-4.9,26.4-0.9,51.5,9.4,76c7,16.6,14.8,32.7,23.8,48.3c5.7,9.8,10.8,20.2,11.6,31.6
		c1.3,19.2,2,38.5-1.6,57.7C1099,1240.6,1095.2,1250,1095.8,1262z"/>
	<path class="st1" d="M5589.2,1173.4c-13.6-47-28.5-92.3-42.8-137.9c-14.1-45.1-28-90.2-42.1-135.2c-14.2-45.5-28.6-91-43-136.8
		c3.1-1.2,4.8-2.3,6.6-2.6c4-0.5,8-0.8,11.9-1c55.2-2.1,110.5-4.3,165.7-6.3c11.5-0.4,11.8-0.2,15.1,11.1
		c23.7,81.1,47.3,162.1,70.8,243.2c24.5,84.3,48.7,168.7,73.6,252.8c3.8,12.7,3.5,24.2,0.1,36.9c-37,137.4-73.5,275-110.1,412.5
		c-1.2,4.5-2.4,9-3.6,13.5c-1.2,4.4-4.1,6.4-8.7,6.7c-12,0.7-23.9,2-35.9,2.6c-41.9,2.2-83.8,4.2-125.7,6.2c-2,0.1-4,0.2-6,0.2
		c-4.1-0.1-5.8-2.2-4.7-6.5c9.5-39.4,19.2-78.8,28.7-118.3c19.8-82.1,39.6-164.2,59.4-246.3c0.6-2.5,0.9-5.1,1.3-7.3
		c-3.8-3.6-7.9-2.4-11.7-2.4c-62.6,0.8-125.2,1.6-187.8,2.5c-2,0-4,0.1-6,0.2c-3.8,0.1-6.3,2.1-7.2,5.6c-1.1,3.8-1.7,7.8-2.6,11.7
		c-25.1,117.1-50.1,234.1-75.2,351.2c-0.6,2.6-0.8,5.3-1.4,7.9c-1.9,7.6-3.2,8.8-10.9,8.6c-16-0.4-32-0.9-47.9-1.6
		c-37.2-1.8-74.5-3.9-111.7-5.9c-3.2-0.2-6.5-0.7-10.6-1.1c0.9-13.2,5-25,7.9-36.9c32.5-131.7,65.1-263.4,98.1-395
		c3.1-12.3,2.2-23.3-1.1-35c-45.2-163.4-90.2-326.9-135.6-490.3c-6.3-22.7-4.5-20,15.6-21.4c51.1-3.6,102.3-7.2,153.4-10.8
		c1.3-0.1,2.7-0.3,4-0.3c7.7-0.4,9.5,0.6,11.3,7.9c5.4,21.3,10.6,42.6,15.8,63.9c28.3,115.6,56.6,231.3,85,346.8
		c4.5,18.3,2.2,16.8,20.8,16c44.6-1.9,89.1-4.2,133.7-6.4C5553,1175.2,5570.2,1174.4,5589.2,1173.4z"/>
	<path class="st1" d="M4604.6,1258.5c-1.2-153.2-2.4-306.3-3.5-459.5c-0.2-27.9-4.1-23.7,24.1-24.6c68.6-2.1,137.2-4.3,205.7-6.3
		c35.3-1,70.6-1.6,105.9-2.6c33.3-0.9,66.6-2,99.9-3c4.7-0.1,9.3-0.2,14,0c3.9,0.1,5.9,2.4,6,6.3c0.1,3.3,0.3,6.7,0.4,10
		c3.6,102.5,7.2,205,10.8,307.4c0.2,5.3,0.4,10.7,0.1,16c-0.1,1.7-1.2,3.8-3.7,4.1c-2,0.2-3.9,0.7-5.9,0.8
		c-45.2,2.7-90.4,5.4-135.6,7.9c-8.3,0.5-9.4-0.6-9.8-8.5c-1.2-25.9-2.4-51.9-3.5-77.8c-1.5-34.6-2.8-69.2-4.3-103.8
		c-0.4-8.2-1.1-9.1-9.4-9.3c-34.6-0.6-69.3-1.1-103.9-1.4c-7.1-0.1-7.9,1-8.1,8.2c-0.1,4.7,0,9.3,0,14
		c1.9,212.4,3.7,424.9,5.6,637.3c0,5.3,0,10.7,0.2,16c0.3,7.9,1.4,9.2,9.6,8.8c33.9-1.4,67.9-2.9,101.8-4.5c6.5-0.3,7.6-1.6,7.5-9
		c-0.2-9.3-0.8-18.6-1.1-27.9c-1.4-43.3-2.8-86.5-4.2-129.8c-0.3-8.3,0.5-9.2,8.3-10.4c3.3-0.5,6.6-1,9.9-1.3
		c45.2-3.2,90.3-6.4,135.5-9.5c4-0.3,8-0.5,11.9,0c1.5,0.2,3.6,2.2,3.9,3.6c0.7,3.2,0.5,6.6,0.5,9.9c0,101.9,0.1,203.8,0,305.7
		c0,15.2-0.2,15.4-15.5,15.5c-123.9,0.7-247.8,1.3-371.7,1.9c-23.3,0.1-46.6,0.3-69.9,0.4c-4.8,0-7.4-2.1-7.4-7.1c0-4-0.1-8-0.2-12
		c-1.4-155.2-2.8-310.3-4.2-465.5C4604.5,1258.5,4604.6,1258.5,4604.6,1258.5z"/>
	<path class="st1" d="M1748.9,1475.6c-2.8,8.8-4.6,13.7-6,18.8c-22.6,81.4-45.2,162.8-67.7,244.2c-1.1,3.8-2.6,7.6-3.2,11.5
		c-0.9,5.6-3.8,7.9-9.4,7.7c-8-0.4-16-0.3-24-0.7c-48.6-2.1-97.1-4.3-145.7-6.5c-3.9-0.2-7.9-0.7-12-1.1c-0.6-6.8,2.5-12,4.4-17.5
		c54.4-152.2,108.8-304.3,163.2-456.5c0.2-0.6,0.5-1.2,0.8-1.9c8.5-25.4,8.8-15.4,0.4-40c-50.4-148.6-101-297.2-151.6-445.7
		c-2.1-6.2-5.1-12.2-5.3-19.7c3.7-0.2,6.8-0.6,10-0.6c47.3-0.5,94.6-0.6,141.9-1.5c10.2-0.2,15,3.3,18.9,12.8
		c27.5,67.8,55.7,135.3,83.7,202.9c2.8,6.7,4.6,13.9,9.7,19.7c5.5-6.7,6.8-14.7,9.4-22.1c23.4-66.5,46.3-133.2,69.8-199.6
		c7.9-22.5,3.9-19.7,27.4-20.5c47.3-1.6,94.5-3.1,141.8-4.5c6.6-0.2,13.2,0,20.2,0c0.4,7.7-3.3,13.4-5.7,19.5
		c-61,155.4-122.1,310.7-183,466.1c-9.9,25.2-9.6,16.5-0.7,41.6c51.9,146.7,104.1,293.3,156.2,439.9c1.8,5,3.8,9.9,5.4,15
		c1.6,5,0,7.3-5.4,7.9c-1.3,0.1-2.7,0.2-4,0.3c-45.3,1.8-90.5,3.7-135.8,5.4c-11.3,0.4-12.8,2.2-17.8-13.2
		c-15.6-48.8-31.7-97.4-47.6-146.1c-10.7-32.9-21.4-65.8-32.1-98.6C1753.7,1488.1,1751.9,1483.8,1748.9,1475.6z"/>
	<path class="st1" d="M4532.7,1254.1c2.6,153.8,5.1,307.6,7.7,461.4c0.1,8.7,0.3,17.3,0.2,26c0,4.9-2.8,7.2-7.5,7.3
		c-4,0.1-8,0.2-12,0.2c-70.6,0.4-141.2,0.8-211.8,1.2c-1.3,0-2.7,0-4,0c-12.4-0.2-12.4-0.2-12.7-11.8c-0.1-5.3-0.1-10.7-0.1-16
		c-1.4-199.1-2.8-398.2-4.2-597.2c-0.8-114.5-1.8-229-2.6-343.6c-0.2-25.2-2.6-22.4,22.1-22.8c66.6-1,133.2-2,199.8-3.1
		c18.1-0.3,17.6-0.7,17.9,17c1.6,115.8,3.2,231.7,5,347.5c0.7,44.6,1.9,89.2,2.8,133.8C4533.1,1254.1,4532.9,1254.1,4532.7,1254.1z"
		/>
	<path class="st1" d="M485.4,1330.2c2-131.8,4.1-263.6,6.1-395.4c0.4-24.7,2.9-21.9-22.6-21.8c-35.3,0.1-70.6,0.5-105.9,0.8
		c-4.7,0-9.3,0-14-0.3c-3-0.2-4.8-2.1-5-5.1c-0.3-4-0.4-8-0.3-12c1.1-50.6,2.3-101.2,3.5-151.8c0.1-2.7,0.2-5.3,0.5-7.9
		c0.4-2.9,2.2-4.8,5.1-5c4-0.3,8-0.4,12-0.4c147.9-0.6,295.7-1.1,443.6-1.7c19.7-0.1,18.4-0.3,18,18.7c-1,50.6-2.2,101.2-3.3,151.8
		c-0.1,3.3,0,6.7-0.7,9.9c-0.4,1.5-2.4,3.5-3.9,3.7c-4.6,0.6-9.3,0.6-13.9,0.6c-35.3-0.2-70.6-0.6-105.9-0.8c-4.7,0-9.3-0.1-14,0
		c-3.9,0.1-6,2.3-6.2,6.1c-0.3,5.3-0.7,10.6-0.9,16c-1,37.3-1.8,74.5-2.8,111.8c-3.6,130.4-7.3,260.9-10.9,391.3
		c-2.6,94.5-5.1,189-7.7,283.5c-0.1,4-0.1,8-0.4,12c-0.2,2.9-2,5-4.9,5.5c-3.3,0.6-6.6,0.8-9.9,1c-51.2,2.4-102.4,4.7-153.7,7.1
		c-6.4,0.3-7.9-1.2-8.1-8.1c-0.1-3.3,0-6.7,0.1-10c1.9-133.1,3.8-266.3,5.8-399.4C485.3,1330.2,485.4,1330.2,485.4,1330.2z"/>
	<path class="st1" d="M3122.8,1513.8c-5.2,0.9-11.1,2.2-17,2.7c-34.5,3.2-69,6.2-103.4,9.2c-3.3,0.3-6.6,0.3-10,0.3
		c-3-0.1-5.2-1.7-5.3-4.6c-0.3-5.3-0.2-10.6-0.1-16c1.5-59.2,3.1-118.5,4.6-177.7c0.1-4.7,0.5-9.3,0.2-14c-0.2-3.6-2.2-6.2-6.3-6.2
		c-2.7,0-5.3,0.1-8,0.1c-92.6,2.4-185.1,4.7-277.7,7.1c-12,0.3-24,0.8-35.9,1.5c-3.8,0.2-6,2.7-5.8,6.6c0.7,15.3,1.3,30.6,2.2,45.9
		c2.6,46.5,5.4,93,8,139.6c0.4,7.3-1.1,8.7-9.4,9.3c-19.9,1.3-39.9,2.6-59.8,3.8c-21.9,1.4-43.9,2.8-65.8,4
		c-8.9,0.5-9.8-0.6-10.3-10.2c-0.1-2-0.1-4-0.1-6c-1.8-96.5-3.5-193.1-5.4-289.6c-1.5-74.6-3.2-149.1-4.8-223.7c-0.1-4-0.2-8-0.2-12
		c0-4.1,2.7-5.7,6.3-6.1c1.3-0.1,2.7-0.2,4-0.2c39.3-1.4,78.5-2.7,117.8-4c2.6-0.1,5.3-0.1,8,0.2c3,0.3,4.8,2.2,5,5.1
		c0.3,5.3,0.4,10.6,0.5,16c1.4,59.9,2.7,119.8,4.1,179.7c0.1,2.7,0.1,5.3,0.2,8c0.2,4.9,3.2,6.9,7.8,7.1c3.3,0.1,6.7,0.2,10,0.2
		c95.9,1.8,191.8,3.6,287.7,5.5c19.8,0.4,18.2,0.3,17.3-18.6c-2.6-61.2-5.3-122.4-8-183.6c-0.1-3.3-0.4-6.7-0.4-10
		c-0.1-7.4,0.5-8.2,7.3-8.9c24.5-2.5,49-5,73.5-7.4c16.6-1.6,33.1-3,49.7-4.3c3.9-0.3,6.3,1.5,6.5,5.6c0.1,2,0.2,4,0.3,6
		c1.4,54.6,2.7,109.2,4.2,163.7c2.3,83.2,4.7,166.4,7.1,249.6c1.1,37.9,2,75.9,3,113.8C3124.7,1505.3,3125.6,1509.3,3122.8,1513.8z"
		/>
	<path class="st1" d="M3390.4,1184.1c0.7,4.6,1.9,9.2,2.1,13.8c1.8,29.2,3.5,58.5,5,87.8c0.6,12.4,0.4,12.5-11.2,13
		c-33.3,1.4-66.6,2.4-99.8,4c-9.1,0.4-20.5-3.5-26.7,3.8c-5.3,6.2-1.7,16.7-1.7,25.3c0,26,0.2,51.9,0.5,77.9c0.1,8,1.3,9.1,9.5,8.9
		c12-0.3,24-0.6,36-1.3c31.3-1.8,62.5-3.8,93.7-5.8c2-0.1,4-0.3,6-0.3c4-0.1,6.3,2,6.5,5.8c0.4,9.3,0.5,18.6,0.9,27.9
		c0.6,18,1.5,35.9,1.9,53.9c0.2,9.7-0.8,10.6-9.7,11c-32.6,1.3-65.2,2.6-97.8,3.8c-39.9,1.5-79.9,2.8-119.8,4.2c-4,0.1-8,0.3-12,0.3
		c-10.5-0.1-10.9-0.3-11.1-11.5c-1.6-78.6-3.1-157.1-4.9-235.7c-1.9-87.9-4-175.8-6.1-263.7c-0.2-7.3-0.5-14.6-0.4-22
		c0-9.8,0.7-10.6,9.6-11c62.6-2.7,125.1-5.4,187.7-8.1c13.3-0.6,26.6-1.3,39.9-1.8c8.5-0.3,9.7,0.2,10.9,7.8
		c4.2,25.6,8.1,51.3,12.1,76.9c0.6,4.1-1.4,6.4-5.3,6.7c-4.6,0.3-9.3,0.2-14,0.3c-40,0.3-79.9,0.5-119.9,0.8c-4.7,0-9.3-0.1-14,0.2
		c-5.2,0.3-7.2,2.4-7.3,7.3c0,2,0.1,4,0.2,6c1.3,34.6,2.5,69.2,3.8,103.8c0.1,3.3,0.2,6.7,0.5,10c0.7,6.1,2.9,8.2,9,7.8
		c17.3-1.1,34.6-2.3,51.8-3.6c22.6-1.7,45.1-3.5,67.7-5.2C3386,1183.1,3387.9,1183.7,3390.4,1184.1z"/>
	<path class="st1" d="M2484.8,1075c-17.4,1-35.2,2.2-53.1,3.1c-13.3,0.7-26.6,1.1-39.9,1.8c-4.5,0.3-7.3,2.9-7.3,7.7
		c0,3.3,0.2,6.7,0.3,10c3.5,88.5,6.9,177,10.5,265.5c1.8,44.6,4,89.1,6,133.7c0.1,2.7,0.2,5.3,0.3,8c0,8.3-0.6,9.2-9.2,9.2
		c-41.3,0.4-82.6,0.6-123.9,0.8c-1.9,0-3.8-0.8-5.8-1.2c-3.3-7.1-2.1-14.6-2.3-21.8c-2-125.8-3.9-251.7-5.8-377.5
		c-0.1-6.7-0.1-13.3-0.3-20c-0.3-12.7-0.4-12.9-14-12.3c-24.6,1.1-49.2,2.5-73.8,3.6c-6.6,0.3-13.2,0-20.8,0
		c-0.1-8.1-0.3-15.4-0.4-22.7c-0.4-25.3-0.8-50.6-1-75.9c-0.1-11.6,0.1-11.7,12.5-11.8c18-0.2,36-0.2,54-0.3
		c83.3-0.4,166.5-0.7,249.8-1.2c19.9-0.1,17.2,0,18.8,16.7c1.9,21.2,4.3,42.4,6.2,63.6C2486.2,1060.5,2487.9,1067.1,2484.8,1075z"/>
	<path class="st1" d="M1247.9,1434.6c-2.5,5.2-7,8.2-13.4,12.4c3.4-6.9,5.9-11.7,10.2-15.5
		C1245.7,1432.6,1246.8,1433.6,1247.9,1434.6z"/>
	<path class="st1" d="M1245,1499.8c-1.5-0.1-3-0.2-4.5-0.3c0.4-0.3,0.8-1,1-0.9c1.2,0.3,2.4,0.7,3.6,1.1
		C1245.1,1499.8,1245,1499.8,1245,1499.8z"/>
	<path class="st1" d="M1172.6,1451.2c0.1,0,0.2-0.1,0.4-0.1C1173,1451.1,1172.6,1451.2,1172.6,1451.2z"/>
	<path class="st0" d="M4915.3,2017c-1.4-3,0.9-5.1,2.3-7.1c19.2-29.6,38.5-59.1,57.8-88.6c2.6-3.9,4.7-8,10.4-7.9
		c38.5,0.2,77,0.3,114.9,0.5c2.3,5-0.7,7.3-2.5,9.9c-20.5,28.7-41,57.4-61.4,86.1c-3.6,5.1-7.1,8.8-14.3,8.8
		c-34.6-0.3-69.2,0-103.9,0C4917.4,2018.5,4916.3,2017.5,4915.3,2017z"/>
	<path class="st0" d="M2552,1703.5c-0.2,5.1-4,8.4-6.6,12c-42.4,59.6-85,119.1-127.6,178.7c-1.2,1.6-2.4,3.2-3.4,4.9
		c-3.1,4.9-7.3,6.8-13.3,6.8c-30-0.4-59.9-0.3-89.9-0.4c-8,0-16,0-24-0.2c-3.9-0.1-5.5-3.3-3.5-7c1.9-3.5,4.1-6.8,6.2-10.3
		c36-60.6,72-121.2,108-181.8c1-1.7,2.3-3.3,3-5.2c3.8-9.9,11.2-11.5,20.8-10.4c15.9,1.8,31.8,2.6,47.7,3.9
		c24.5,2,49.1,4.1,73.6,6.2C2546.2,1701,2549.7,1700.4,2552,1703.5z"/>
	<path class="st0" d="M3213.5,1700.3c17.3,0,34.6-0.1,51.9,0c3.8,0,5.6,3.5,3.7,6.8c-0.7,1.1-1.5,2.2-2.2,3.3
		c-18.4,26.8-36.9,53.7-55.3,80.5c-3,4.4-5.8,8.8-12.3,8.6c-33.2-1-66.5-1.9-99.7-2.9c-5.1-0.2-7-3.8-4.1-8
		c12-17.6,24.1-35,36.3-52.5c8-11.5,16-22.9,24-34.3c13.9-0.3,27.9-0.7,41.8-1c5.3-0.1,10.6,0,16,0
		C3213.5,1700.7,3213.5,1700.5,3213.5,1700.3z"/>
</g>
</svg>
